<?xml version="1.0" encoding="UTF-8"?>
<svg version="1.1" xmlns="http://www.w3.org/2000/svg" width="63" height="63">
<path d="M0 0 C1.01900391 0.00193359 2.03800781 0.00386719 3.08789062 0.00585938 C4.15072266 0.01810547 5.21355469 0.03035156 6.30859375 0.04296875 C7.37529297 0.04361328 8.44199219 0.04425781 9.54101562 0.04492188 C17.46533422 0.09008899 17.46533422 0.09008899 19.74609375 1.23046875 C19.74609375 2.22046875 19.74609375 3.21046875 19.74609375 4.23046875 C17.34067446 5.43317839 15.64242784 5.43363538 12.95703125 5.546875 C11.54550781 5.6097168 11.54550781 5.6097168 10.10546875 5.67382812 C8.62820312 5.73280273 8.62820312 5.73280273 7.12109375 5.79296875 C6.12851563 5.83615234 5.1359375 5.87933594 4.11328125 5.92382812 C1.65769537 6.03007944 -0.79799328 6.13211839 -3.25390625 6.23046875 C-2.62299072 6.85614746 -1.9920752 7.48182617 -1.34204102 8.12646484 C0.9950901 10.44656494 3.32996153 12.76889167 5.66333008 15.09277344 C6.6741496 16.09856078 7.68586437 17.10344923 8.69848633 18.10742188 C10.15291231 19.54973358 11.6040999 20.99523547 13.0546875 22.44140625 C13.92923584 23.31071777 14.80378418 24.1800293 15.70483398 25.07568359 C17.74609375 27.23046875 17.74609375 27.23046875 18.74609375 29.23046875 C19.73609375 29.23046875 20.72609375 29.23046875 21.74609375 29.23046875 C23.64525858 27.2960526 25.2521196 25.20604669 26.9296875 23.078125 C28.8959225 21.0780623 30.01082638 20.60919808 32.74609375 20.23046875 C32.74609375 24.23046875 32.74609375 24.23046875 30.734375 26.80859375 C29.85136719 27.6903125 28.96835937 28.57203125 28.05859375 29.48046875 C27.18847656 30.3725 26.31835938 31.26453125 25.421875 32.18359375 C22.74609375 34.23046875 22.74609375 34.23046875 20.39428711 34.64331055 C16.66458655 34.06186649 15.30821802 32.36150614 12.69921875 29.671875 C12.24254822 29.20812973 11.78587769 28.74438446 11.31536865 28.2665863 C9.86342367 26.78672887 8.42984057 25.29044299 6.99609375 23.79296875 C6.01679046 22.78857587 5.03633328 21.78530668 4.0546875 20.78320312 C1.60740638 18.27602352 -0.82609289 15.75647018 -3.25390625 13.23046875 C-3.58390625 12.90046875 -3.91390625 12.57046875 -4.25390625 12.23046875 C-4.25390625 21.14046875 -4.25390625 30.05046875 -4.25390625 39.23046875 C-0.29390625 35.27046875 3.66609375 31.31046875 7.74609375 27.23046875 C8.73609375 27.56046875 9.72609375 27.89046875 10.74609375 28.23046875 C10.74609375 31.23046875 10.74609375 31.23046875 9.20703125 32.84375 C8.51867187 33.40449219 7.8303125 33.96523438 7.12109375 34.54296875 C3.38114399 37.61660562 0.23136194 40.74520056 -3.25390625 44.23046875 C12.25609375 44.23046875 27.76609375 44.23046875 43.74609375 44.23046875 C37.34255232 36.90292669 37.34255232 36.90292669 29.74609375 31.23046875 C29.74609375 30.24046875 29.74609375 29.25046875 29.74609375 28.23046875 C30.73609375 27.90046875 31.72609375 27.57046875 32.74609375 27.23046875 C36.70609375 31.19046875 40.66609375 35.15046875 44.74609375 39.23046875 C44.71128906 37.95429687 44.67648438 36.678125 44.640625 35.36328125 C44.61249144 33.69402354 44.58519082 32.02475165 44.55859375 30.35546875 C44.53345703 29.51371094 44.50832031 28.67195313 44.48242188 27.8046875 C44.47275391 26.99902344 44.46308594 26.19335938 44.453125 25.36328125 C44.43741455 24.61965332 44.4217041 23.87602539 44.40551758 23.10986328 C44.57410278 22.17956299 44.57410278 22.17956299 44.74609375 21.23046875 C45.73609375 20.57046875 46.72609375 19.91046875 47.74609375 19.23046875 C50.38715973 21.87153473 50.00356063 23.10829329 50.01171875 26.7890625 C50.01558594 28.45098633 50.01558594 28.45098633 50.01953125 30.14648438 C50.01179688 31.30857422 50.0040625 32.47066406 49.99609375 33.66796875 C50.00769531 35.40530273 50.00769531 35.40530273 50.01953125 37.17773438 C50.01695313 38.28697266 50.014375 39.39621094 50.01171875 40.5390625 C50.00946289 41.55798584 50.00720703 42.57690918 50.00488281 43.62670898 C49.74609375 46.23046875 49.74609375 46.23046875 47.74609375 49.23046875 C45.42430115 49.59796143 45.42430115 49.59796143 42.48608398 49.58691406 C40.83944008 49.59141571 40.83944008 49.59141571 39.15953064 49.5960083 C37.37513329 49.5774881 37.37513329 49.5774881 35.5546875 49.55859375 C34.3391066 49.55672058 33.1235257 49.55484741 31.87110901 49.55291748 C29.29791528 49.54618551 26.72473197 49.53224854 24.15161133 49.51171875 C20.19668147 49.48057182 16.24214969 49.47075084 12.28710938 49.46484375 C9.79296385 49.45567406 7.29882241 49.4452984 4.8046875 49.43359375 C3.61306503 49.42934387 2.42144257 49.42509399 1.19371033 49.42071533 C-0.44820534 49.40630402 -0.44820534 49.40630402 -2.12329102 49.39160156 C-3.09210709 49.38477356 -4.06092316 49.37794556 -5.05909729 49.37091064 C-7.25390625 49.23046875 -7.25390625 49.23046875 -8.25390625 48.23046875 C-8.36241032 46.79875501 -8.40292008 45.36179366 -8.41503906 43.92602539 C-8.42464661 43.01160172 -8.43425415 42.09717804 -8.44415283 41.15504456 C-8.44840271 40.1602861 -8.45265259 39.16552765 -8.45703125 38.140625 C-8.46273132 37.12576523 -8.4684314 36.11090546 -8.4743042 35.06529236 C-8.48376955 32.91406299 -8.49029425 30.76281902 -8.49414062 28.61157227 C-8.5038548 25.31045425 -8.53486752 22.00995631 -8.56640625 18.70898438 C-8.57293499 16.62370163 -8.57818597 14.53841442 -8.58203125 12.453125 C-8.59437805 11.46039078 -8.60672485 10.46765656 -8.6194458 9.44483948 C-8.6164447 8.52726364 -8.6134436 7.60968781 -8.61035156 6.66430664 C-8.61399719 5.85457901 -8.61764282 5.04485138 -8.62139893 4.21058655 C-8.50012634 3.55714767 -8.37885376 2.9037088 -8.25390625 2.23046875 C-4.92778886 0.01305715 -3.87319082 -0.01701841 0 0 Z " fill="#090F2F" transform="translate(8.25390625,13.76953125)"/>
<path d="M0 0 C4.9277939 2.03648625 7.64805529 5.26212293 10 10 C10.88880145 15.85127623 11.24207721 22.0617756 7.8125 27.125 C3.62770075 31.83435626 -0.50789944 33.56665976 -6.7265625 34.0625 C-11.66795513 33.92665415 -15.02225268 31.79997508 -18.75 28.75 C-22.40513369 24.28261437 -24.33596571 20.31023046 -24 14.5 C-23.09543229 8.73829697 -20.39527173 4.75324014 -15.7265625 1.3359375 C-10.71402683 -1.12006135 -5.43913289 -0.71673303 0 0 Z M-16.4375 11.75 C-17.32785564 15.31142254 -17.11327344 18.50216667 -16 22 C-12.97452014 25.27760318 -10.40810938 26.49621607 -6 27 C-6 26.34 -6 25.68 -6 25 C-6.94875 24.566875 -7.8975 24.13375 -8.875 23.6875 C-12 22 -12 22 -14 19 C-13.78206897 12.89793103 -13.78206897 12.89793103 -11.3125 10.0625 C-7.34465663 8.23943683 -4.064168 8.64527733 0 10 C0.33 12.97 0.66 15.94 1 19 C0.01 19.66 -0.98 20.32 -2 21 C-2.33 18.03 -2.66 15.06 -3 12 C-5.97 11.505 -5.97 11.505 -9 11 C-10.66846734 12.69495956 -10.66846734 12.69495956 -12 15 C-11.75925978 18.37036311 -11.41201979 19.58798021 -9 22 C-7.00043389 22.04165763 -4.99956611 22.04165763 -3 22 C-2.34 22.33 -1.68 22.66 -1 23 C1.17970092 22.62031521 1.17970092 22.62031521 3 21 C4.07687566 17.19503934 4.38478801 14.94059292 2.875 11.25 C0.17703265 8.01243917 -2.26098799 6.31213036 -6.4375 5.5625 C-10.6660457 6.28444683 -13.73109705 8.45524858 -16.4375 11.75 Z " fill="#F2C30F" transform="translate(53,0)"/>
<path d="M0 0 C2.875 2.125 2.875 2.125 5 5 C5.3125 8.3125 5.3125 8.3125 5 11 C3.02 11.99 3.02 11.99 1 13 C0.67 10.03 0.34 7.06 0 4 C-2.91634129 3.7497843 -2.91634129 3.7497843 -6 4 C-8.33391203 6.78114056 -8.33391203 6.78114056 -7.625 9.6875 C-7.315625 10.8321875 -7.315625 10.8321875 -7 12 C-6.236875 12.144375 -5.47375 12.28875 -4.6875 12.4375 C-2 13 -2 13 1 14 C-0.32 15.65 -1.64 17.3 -3 19 C-3 18.34 -3 17.68 -3 17 C-4.11375 16.9071875 -4.11375 16.9071875 -5.25 16.8125 C-8.98229179 15.70977742 -10.09610628 14.36842735 -12 11 C-12.07517661 6.7149334 -11.69099731 4.76996843 -8.8125 1.5625 C-5.43724821 -0.31263988 -3.7992366 -0.71235686 0 0 Z " fill="#E4BB21" transform="translate(50,8)"/>
<path d="M0 0 C1.67542976 0.28604898 3.34385343 0.61781233 5 1 C4.67 2.98 4.34 4.96 4 7 C2.68 7 1.36 7 0 7 C-0.38133299 5.0085944 -0.71325582 3.00720923 -1 1 C-0.67 0.67 -0.34 0.34 0 0 Z " fill="#E0B925" transform="translate(44,13)"/>
<path d="M0 0 C0.66 0.33 1.32 0.66 2 1 C0.35 2.98 -1.3 4.96 -3 7 C-3.66 6.67 -4.32 6.34 -5 6 C-3.63016497 2.83884224 -3.0109362 2.0072908 0 0 Z " fill="#E3BA22" transform="translate(38,1)"/>
<path d="M0 0 C1.32 0.66 2.64 1.32 4 2 C2.35 3.32 0.7 4.64 -1 6 C-1.66 5.67 -2.32 5.34 -3 5 C-1.125 1.125 -1.125 1.125 0 0 Z " fill="#DAB62C" transform="translate(42,9)"/>
</svg>
