<?xml version="1.0" encoding="UTF-8"?>
<svg version="1.1" xmlns="http://www.w3.org/2000/svg" width="63" height="63">
<path d="M0 0 C1.08378685 -0.0049926 1.08378685 -0.0049926 2.18946838 -0.01008606 C3.71850955 -0.01515113 5.24756178 -0.01749451 6.77661133 -0.01733398 C9.11623345 -0.01951941 11.45538328 -0.03767605 13.79492188 -0.05664062 C15.2799463 -0.05957484 16.76497297 -0.06155945 18.25 -0.0625 C18.95007675 -0.06968552 19.6501535 -0.07687103 20.3714447 -0.08427429 C24.04263893 -0.06700387 25.54893281 0.07298645 28.69140625 2.16796875 C29.04785156 5.04125977 29.04785156 5.04125977 29.01953125 8.671875 C29.014375 9.96931641 29.00921875 11.26675781 29.00390625 12.60351562 C28.99359375 13.28019287 28.98328125 13.95687012 28.97265625 14.65405273 C28.94147453 16.72593157 28.93168394 18.79705033 28.92578125 20.86914062 C28.84506383 31.01431117 28.84506383 31.01431117 27.69140625 32.16796875 C23.57563036 32.38586061 19.45675702 32.35376063 15.33569336 32.35327148 C13.26590361 32.35545609 11.19664832 32.37360366 9.12695312 32.39257812 C7.82951172 32.39451172 6.53207031 32.39644531 5.1953125 32.3984375 C3.99720947 32.40254639 2.79910645 32.40665527 1.56469727 32.41088867 C-1.30859375 32.16796875 -1.30859375 32.16796875 -3.30859375 30.16796875 C-3.5480957 27.98486328 -3.5480957 27.98486328 -3.546875 25.30078125 C-3.56298828 24.33269531 -3.57910156 23.36460938 -3.59570312 22.3671875 C-3.61256516 20.32558382 -3.61786354 18.28385035 -3.61132812 16.2421875 C-3.54548765 10.30048658 -3.54548765 10.30048658 -6.8515625 5.66015625 C-7.66238281 5.16773438 -8.47320313 4.6753125 -9.30859375 4.16796875 C-9.30859375 3.17796875 -9.30859375 2.18796875 -9.30859375 1.16796875 C-6.32644849 -0.32310388 -3.27029574 0.00518339 0 0 Z M13.69140625 9.16796875 C13.91828125 9.76609375 14.14515625 10.36421875 14.37890625 10.98046875 C14.48203125 11.70234375 14.58515625 12.42421875 14.69140625 13.16796875 C13.25390625 14.79296875 13.25390625 14.79296875 11.69140625 16.16796875 C11.69140625 16.82796875 11.69140625 17.48796875 11.69140625 18.16796875 C12.35140625 18.16796875 13.01140625 18.16796875 13.69140625 18.16796875 C15.49594271 16.51301735 15.49594271 16.51301735 16.69140625 14.16796875 C16.46942812 11.46950985 16.46942812 11.46950985 15.69140625 9.16796875 C15.03140625 9.16796875 14.37140625 9.16796875 13.69140625 9.16796875 Z M11.69140625 22.16796875 C11.69140625 22.82796875 11.69140625 23.48796875 11.69140625 24.16796875 C12.35140625 24.16796875 13.01140625 24.16796875 13.69140625 24.16796875 C13.69140625 23.50796875 13.69140625 22.84796875 13.69140625 22.16796875 C13.03140625 22.16796875 12.37140625 22.16796875 11.69140625 22.16796875 Z " fill="#FAC605" transform="translate(34.30859375,30.83203125)"/>
<path d="M0 0 C1.10601563 -0.0309375 1.10601563 -0.0309375 2.234375 -0.0625 C4.375 -0.078125 4.375 -0.078125 8 0.25 C10.77022203 4.40533305 10.36770597 7.80414851 10.375 12.6875 C10.39949219 13.54666016 10.42398437 14.40582031 10.44921875 15.29101562 C10.47849019 21.57949765 10.47849019 21.57949765 8.1796875 24.80078125 C5.47441347 26.59944911 3.20838755 26.9583284 0 27.25 C0 30.22 0 33.19 0 36.25 C1.27875 36.518125 2.5575 36.78625 3.875 37.0625 C7.49675855 37.82190099 7.80051868 37.95077803 10 41.25 C10.25878906 43.28710938 10.25878906 43.28710938 10.265625 45.59375 C10.26949219 46.84478516 10.26949219 46.84478516 10.2734375 48.12109375 C10.26570313 48.98863281 10.25796875 49.85617188 10.25 50.75 C10.25773437 51.61753906 10.26546875 52.48507813 10.2734375 53.37890625 C10.27085938 54.21292969 10.26828125 55.04695313 10.265625 55.90625 C10.26336914 56.66744141 10.26111328 57.42863281 10.25878906 58.21289062 C10 60.25 10 60.25 8 63.25 C5.32688766 63.64052264 2.98977458 63.82030984 0.3125 63.8125 C-0.41267822 63.8129834 -1.13785645 63.8134668 -1.88500977 63.81396484 C-6.21703411 63.67796227 -9.12318948 63.22280042 -12.4375 60.375 C-15.33285041 57.24530008 -16.12559823 55.05818746 -16.20874023 50.81958008 C-16.22803085 49.90134964 -16.24732147 48.9831192 -16.26719666 48.0370636 C-16.32497073 43.82577416 -16.37423789 39.6146565 -16.4050293 35.40307617 C-16.42659096 33.18481867 -16.46067175 30.96664583 -16.50756836 28.7487793 C-16.57465555 25.54697754 -16.60204553 22.34693729 -16.62109375 19.14453125 C-16.64892441 18.15886673 -16.67675507 17.17320221 -16.70542908 16.15766907 C-16.68746479 10.1102899 -15.75579859 6.86041986 -11.48597717 2.49589539 C-8.01083508 -0.41778564 -4.31719913 0.0301902 0 0 Z M-12 9.25 C-12.73496866 12.63647943 -12.70115054 15.95134259 -12.6640625 19.40625 C-12.66884613 20.38613892 -12.67362976 21.36602783 -12.67855835 22.37561035 C-12.68195441 24.44329436 -12.67277263 26.51103228 -12.65185547 28.57861328 C-12.62508615 31.73982702 -12.65161371 34.89749018 -12.68359375 38.05859375 C-12.6802896 40.07032032 -12.67388326 42.08204469 -12.6640625 44.09375 C-12.67418365 45.03657837 -12.68430481 45.97940674 -12.69473267 46.95080566 C-12.61336198 51.51692319 -12.48115935 53.60984711 -9.66674805 57.35424805 C-6.27426926 59.7659113 -4.30581239 59.77049558 -0.1875 59.5625 C2.8753125 59.4078125 2.8753125 59.4078125 6 59.25 C6 53.64 6 48.03 6 42.25 C3.8034375 41.816875 3.8034375 41.816875 1.5625 41.375 C-0.93359375 40.8828125 -0.93359375 40.8828125 -3 40.25 C-4.42597611 37.39804778 -4.1320252 34.92538825 -4.125 31.75 C-4.12757812 30.5846875 -4.13015625 29.419375 -4.1328125 28.21875 C-4 25.25 -4 25.25 -3 23.25 C-0.04179941 22.34408602 2.96010437 21.84941604 6 21.25 C6 15.64 6 10.03 6 4.25 C3.958125 4.146875 1.91625 4.04375 -0.1875 3.9375 C-1.91033203 3.85048828 -1.91033203 3.85048828 -3.66796875 3.76171875 C-8.15195574 4.41880946 -9.28486694 5.63768266 -12 9.25 Z " fill="#0A102F" transform="translate(16,-0.25)"/>
<path d="M0 0 C1.09445938 0.00212242 1.09445938 0.00212242 2.21102905 0.00428772 C4.54437335 0.00989094 6.87762214 0.0224439 9.2109375 0.03515625 C10.79166528 0.04017084 12.37239457 0.04473382 13.953125 0.04882812 C17.83076604 0.05986141 21.70833557 0.07712814 25.5859375 0.09765625 C25.2559375 0.75765625 24.9259375 1.41765625 24.5859375 2.09765625 C23.23846436 2.12738525 23.23846436 2.12738525 21.86376953 2.15771484 C18.53503672 2.23574886 15.20676494 2.32243739 11.87841797 2.41503906 C10.4371001 2.45335299 8.99568582 2.48820168 7.55419922 2.51953125 C5.48369864 2.56513071 3.41386317 2.62313069 1.34375 2.68359375 C0.0973877 2.71501465 -1.14897461 2.74643555 -2.43310547 2.77880859 C-5.52948026 2.79447934 -5.52948026 2.79447934 -7.4140625 5.09765625 C-8.0740625 4.76765625 -8.7340625 4.43765625 -9.4140625 4.09765625 C-9.4140625 3.10765625 -9.4140625 2.11765625 -9.4140625 1.09765625 C-6.40193221 -0.4084089 -3.30123628 -0.02394706 0 0 Z " fill="#D3AE35" transform="translate(34.4140625,30.90234375)"/>
<path d="M0 0 C1.19109375 -0.00386719 1.19109375 -0.00386719 2.40625 -0.0078125 C4.5 0.125 4.5 0.125 6.5 1.125 C6.5 2.115 6.5 3.105 6.5 4.125 C4.13386544 5.30806728 2.63219264 5.25854608 0 5.25 C-0.7940625 5.25257812 -1.588125 5.25515625 -2.40625 5.2578125 C-4.5 5.125 -4.5 5.125 -6.5 4.125 C-6.5 3.135 -6.5 2.145 -6.5 1.125 C-4.13386544 -0.05806728 -2.63219264 -0.00854608 0 0 Z " fill="#0A102F" transform="translate(39.5,8.875)"/>
<path d="M0 0 C1.875 0.671875 1.875 0.671875 4 1.75 C4.70125 2.09546875 5.4025 2.4409375 6.125 2.796875 C8 4 8 4 10 7 C9.01 7.66 8.02 8.32 7 9 C4.03 7.35 1.06 5.7 -2 4 C-2 3.01 -2 2.02 -2 1 C-1.34 0.67 -0.68 0.34 0 0 Z " fill="#0A102F" transform="translate(32,14)"/>
<path d="M0 0 C0.99 0.99 1.98 1.98 3 3 C1.57140593 4.03325986 0.13177617 5.05127634 -1.3125 6.0625 C-2.51326172 6.91521484 -2.51326172 6.91521484 -3.73828125 7.78515625 C-4.48464844 8.18605469 -5.23101562 8.58695313 -6 9 C-6.99 8.67 -7.98 8.34 -9 8 C-9 7.01 -9 6.02 -9 5 C-6.03 3.35 -3.06 1.7 0 0 Z " fill="#0A102F" transform="translate(39,0)"/>
</svg>
