<?xml version="1.0" encoding="UTF-8"?>
<svg version="1.1" xmlns="http://www.w3.org/2000/svg" width="68" height="63">
<path d="M0 0 C0.70837509 0.00718552 1.41675018 0.01437103 2.14659119 0.02177429 C3.23749306 0.02246162 3.23749306 0.02246162 4.35043335 0.02316284 C5.88788993 0.02618468 7.42534346 0.03406899 8.9627533 0.0464325 C11.32427229 0.06469731 13.68539954 0.06694214 16.04698181 0.06669617 C17.53852168 0.07161101 19.03005888 0.07743918 20.52159119 0.08427429 C21.23199051 0.08538712 21.94238983 0.08649994 22.67431641 0.08764648 C27.65163129 0.13618939 27.65163129 0.13618939 28.76768494 1.25224304 C28.85526497 3.25189286 28.8746507 5.25460414 28.86534119 7.25614929 C28.86211853 8.4710907 28.85889587 9.6860321 28.85557556 10.93778992 C28.8430072 12.85688171 28.8430072 12.85688171 28.83018494 14.81474304 C28.82567322 16.09800476 28.8211615 17.38126648 28.81651306 18.70341492 C28.80468039 21.88640326 28.78819562 25.06930067 28.76768494 28.25224304 C24.14268494 30.37724304 24.14268494 30.37724304 20.76768494 29.25224304 C20.76768494 31.23224304 20.76768494 33.21224304 20.76768494 35.25224304 C19.28268494 35.74724304 19.28268494 35.74724304 17.76768494 36.25224304 C16.18174744 35.03739929 16.18174744 35.03739929 14.39268494 33.31474304 C9.65791282 29.47764148 5.60361383 29.85333416 -0.27919006 30.33427429 C-3.79263488 30.2366786 -4.77772518 29.71528134 -7.23231506 27.25224304 C-7.71815491 24.64848328 -7.71815491 24.64848328 -7.69325256 21.56083679 C-7.68938538 20.45159851 -7.68551819 19.34236023 -7.68153381 18.19950867 C-7.65704163 17.04128601 -7.63254944 15.88306335 -7.60731506 14.68974304 C-7.606026 13.5276532 -7.60473694 12.36556335 -7.60340881 11.16825867 C-7.48683064 0.03504335 -7.48683064 0.03504335 0 0 Z M0.76768494 9.25224304 C0.76768494 9.91224304 0.76768494 10.57224304 0.76768494 11.25224304 C7.69768494 11.25224304 14.62768494 11.25224304 21.76768494 11.25224304 C21.76768494 10.59224304 21.76768494 9.93224304 21.76768494 9.25224304 C14.83768494 9.25224304 7.90768494 9.25224304 0.76768494 9.25224304 Z M0.76768494 18.25224304 C0.76768494 18.91224304 0.76768494 19.57224304 0.76768494 20.25224304 C7.36768494 20.25224304 13.96768494 20.25224304 20.76768494 20.25224304 C21.09768494 19.59224304 21.42768494 18.93224304 21.76768494 18.25224304 C14.83768494 18.25224304 7.90768494 18.25224304 0.76768494 18.25224304 Z " fill="#F9C607" transform="translate(38.23231506347656,-0.2522430419921875)"/>
<path d="M0 0 C1.07878418 0.01047363 2.15756836 0.02094727 3.26904297 0.03173828 C5.01894531 0.04140625 5.01894531 0.04140625 6.80419922 0.05126953 C8.02751953 0.06802734 9.25083984 0.08478516 10.51123047 0.10205078 C11.74228516 0.11107422 12.97333984 0.12009766 14.24169922 0.12939453 C17.29006862 0.1530253 20.33805429 0.18597024 23.38623047 0.22705078 C23.71623047 1.54705078 24.04623047 2.86705078 24.38623047 4.22705078 C16.13623047 4.22705078 7.88623047 4.22705078 -0.61376953 4.22705078 C-0.61376953 17.09705078 -0.61376953 29.96705078 -0.61376953 43.22705078 C2.35623047 43.22705078 5.32623047 43.22705078 8.38623047 43.22705078 C8.71623047 44.87705078 9.04623047 46.52705078 9.38623047 48.22705078 C9.92634766 47.40849609 10.46646484 46.58994141 11.02294922 45.74658203 C13.98539738 42.78413387 16.70007139 42.82827102 20.78076172 42.73876953 C23.25388992 42.77192138 25.72677725 42.83142768 28.19873047 42.91455078 C29.46394531 42.93710937 30.72916016 42.95966797 32.03271484 42.98291016 C35.15106026 43.04174686 38.26879636 43.13142397 41.38623047 43.22705078 C41.38623047 36.95705078 41.38623047 30.68705078 41.38623047 24.22705078 C42.37623047 23.89705078 43.36623047 23.56705078 44.38623047 23.22705078 C46.75559611 25.59641643 45.61956084 31.48273502 45.63623047 34.66455078 C45.65685547 35.64488281 45.67748047 36.62521484 45.69873047 37.63525391 C45.70646484 39.04000977 45.70646484 39.04000977 45.71435547 40.47314453 C45.72837402 41.7675647 45.72837402 41.7675647 45.74267578 43.08813477 C45.62504883 43.79397705 45.50742187 44.49981934 45.38623047 45.22705078 C41.94315369 47.5224353 40.72845522 47.44691863 36.68701172 47.39501953 C35.55972656 47.40210938 34.43244141 47.40919922 33.27099609 47.41650391 C30.9089254 47.41521245 28.54677902 47.39470059 26.18505859 47.35400391 C20.16318465 47.42589666 16.35074523 47.59374531 11.80419922 51.77783203 C10.94024536 52.74136597 10.94024536 52.74136597 10.05883789 53.72436523 C8.38623047 55.22705078 8.38623047 55.22705078 4.38623047 55.22705078 C4.38623047 52.58705078 4.38623047 49.94705078 4.38623047 47.22705078 C3.27248047 47.26830078 2.15873047 47.30955078 1.01123047 47.35205078 C-2.61376953 47.22705078 -2.61376953 47.22705078 -4.61376953 45.22705078 C-4.86773682 43.36755371 -4.86773682 43.36755371 -4.87255859 41.08447266 C-4.87886292 40.23018677 -4.88516724 39.37590088 -4.8916626 38.49572754 C-4.88761414 37.57175171 -4.88356567 36.64777588 -4.87939453 35.69580078 C-4.88130798 34.74894409 -4.88322144 33.8020874 -4.88519287 32.82653809 C-4.88655526 30.82250707 -4.88285509 28.81846724 -4.87451172 26.81445312 C-4.863813 23.73954525 -4.87440525 20.66522165 -4.88720703 17.59033203 C-4.88588545 15.64632032 -4.88332307 13.70230897 -4.87939453 11.75830078 C-4.88546722 10.37233704 -4.88546722 10.37233704 -4.8916626 8.95837402 C-4.88535828 8.10408813 -4.87905396 7.24980225 -4.87255859 6.36962891 C-4.87096741 5.61621216 -4.86937622 4.86279541 -4.86773682 4.08654785 C-4.4276847 0.86457529 -3.08836589 0.26827763 0 0 Z " fill="#090F2E" transform="translate(4.61376953125,7.77294921875)"/>
<path d="M0 0 C12.54 0 25.08 0 38 0 C37.67 1.32 37.34 2.64 37 4 C25.12 4 13.24 4 1 4 C0.67 2.68 0.34 1.36 0 0 Z " fill="#0A102F" transform="translate(6,34)"/>
<path d="M0 0 C6.93 0 13.86 0 21 0 C21.33 1.32 21.66 2.64 22 4 C14.41 4 6.82 4 -1 4 C-0.67 2.68 -0.34 1.36 0 0 Z " fill="#090F2E" transform="translate(7,25)"/>
<path d="M0 0 C0.9796875 -0.00257812 1.959375 -0.00515625 2.96875 -0.0078125 C5.5 0.125 5.5 0.125 7.5 1.125 C7.17 2.445 6.84 3.765 6.5 5.125 C2.21 5.125 -2.08 5.125 -6.5 5.125 C-6.83 3.805 -7.16 2.485 -7.5 1.125 C-4.89080172 -0.17959914 -2.91057385 -0.0076594 0 0 Z " fill="#0A102F" transform="translate(13.5,15.875)"/>
<path d="M0 0 C3.96 0 7.92 0 12 0 C12.33 1.32 12.66 2.64 13 4 C10.51245214 5.24377393 8.77344699 5.13306235 6 5.125 C5.113125 5.12757812 4.22625 5.13015625 3.3125 5.1328125 C1 5 1 5 -1 4 C-0.67 2.68 -0.34 1.36 0 0 Z " fill="#0A102F" transform="translate(31,42)"/>
</svg>
