<?xml version="1.0" encoding="UTF-8"?>
<svg version="1.1" xmlns="http://www.w3.org/2000/svg" width="92" height="92">
<path d="M0 0 C2.58670675 1.3349403 4.93963926 2.8561366 7.3515625 4.484375 C10.31323846 6.17925741 12.92042291 6.85547869 16.25 7.5625 C21.58016833 8.73937927 24.32258202 9.94541095 28 14 C30.14554165 17.37156545 31.10997355 20.37587357 31.8125 24.25 C32.55607231 28.11011015 33.94092447 30.67928896 36.125 33.9375 C38.82521076 38.24054523 39.90683868 41.41819407 39.59765625 46.5078125 C38.6867003 50.30643926 36.68280565 53.14129957 34.515625 56.3515625 C32.82074259 59.31323846 32.14452131 61.92042291 31.4375 65.25 C30.26062073 70.58016833 29.05458905 73.32258202 25 77 C21.62843455 79.14554165 18.62412643 80.10997355 14.75 80.8125 C10.88988985 81.55607231 8.32071104 82.94092447 5.0625 85.125 C0.75945477 87.82521076 -2.41819407 88.90683868 -7.5078125 88.59765625 C-11.30643926 87.6867003 -14.14129957 85.68280565 -17.3515625 83.515625 C-20.31323846 81.82074259 -22.92042291 81.14452131 -26.25 80.4375 C-31.58016833 79.26062073 -34.32258202 78.05458905 -38 74 C-40.14554165 70.62843455 -41.10997355 67.62412643 -41.8125 63.75 C-42.55607231 59.88988985 -43.94092447 57.32071104 -46.125 54.0625 C-48.82521076 49.75945477 -49.90683868 46.58180593 -49.59765625 41.4921875 C-48.6867003 37.69356074 -46.68280565 34.85870043 -44.515625 31.6484375 C-42.82074259 28.68676154 -42.14452131 26.07957709 -41.4375 22.75 C-40.26062073 17.41983167 -39.05458905 14.67741798 -35 11 C-31.62843455 8.85445835 -28.62412643 7.89002645 -24.75 7.1875 C-20.88988985 6.44392769 -18.32071104 5.05907553 -15.0625 2.875 C-9.98095603 -0.31372774 -5.91424501 -1.4183064 0 0 Z M-2.84790039 39.78417969 C-5.24178643 42.17983452 -7.62312259 44.58746943 -10 47 C-10.47050781 46.59007813 -10.94101562 46.18015625 -11.42578125 45.7578125 C-12.04839844 45.21898438 -12.67101563 44.68015625 -13.3125 44.125 C-14.23482422 43.32449219 -14.23482422 43.32449219 -15.17578125 42.5078125 C-17.13498212 40.8359553 -17.13498212 40.8359553 -20 39 C-22.96076291 39.35888035 -23.84658021 39.84658021 -26 42 C-26.03263665 46.58544972 -23.56187161 49.00612201 -20.53515625 52.109375 C-19.94605469 52.69203125 -19.35695313 53.2746875 -18.75 53.875 C-18.17636719 54.48085938 -17.60273437 55.08671875 -17.01171875 55.7109375 C-16.44582031 56.278125 -15.87992188 56.8453125 -15.296875 57.4296875 C-14.78479492 57.94772949 -14.27271484 58.46577148 -13.74511719 58.99951172 C-11.99145259 60.20351091 -11.99145259 60.20351091 -9.62304688 59.9543457 C-6.18314896 58.70280429 -4.3365114 56.87108651 -1.734375 54.30078125 C-1.25550842 53.82811325 -0.77664185 53.35544525 -0.28326416 52.86845398 C0.72338232 51.86889033 1.72495099 50.86418991 2.72167969 49.85473633 C4.24366573 48.31889195 5.78808627 46.80854888 7.3359375 45.29882812 C8.31395262 44.32176438 9.29056396 43.34329304 10.265625 42.36328125 C11.15024414 41.47938721 12.03486328 40.59549316 12.94628906 39.68481445 C15.25464379 36.6671044 15.82938844 34.76767188 16 31 C14.87359395 29.03959519 14.87359395 29.03959519 13 28 C6.60051733 28 1.49523792 35.4647254 -2.84790039 39.78417969 Z " fill="#FFC900" transform="translate(51,2)"/>
</svg>
