<?xml version="1.0" encoding="UTF-8"?>
<svg version="1.1" xmlns="http://www.w3.org/2000/svg" width="71" height="71">
<path d="M0 0 C7.65022085 5.47409796 11.93295585 12.70685998 13.75390625 21.83984375 C15.03633868 31.24884803 13.28445442 39.68434628 8.125 47.6875 C1.67052342 56.08236202 -6.32347811 59.92229708 -16.75 61.3125 C-26.0570264 61.61764841 -34.62800766 59.04782611 -42 53.3125 C-48.45386056 47.26446028 -52.08236829 38.72614234 -52.98828125 30.0234375 C-53.28427825 20.70732135 -50.41670865 12.33882869 -44.5078125 5.09375 C-32.15402467 -7.424755 -14.84496648 -9.12580017 0 0 Z " fill="#F76233" transform="translate(53.75,6.6875)"/>
<path d="M0 0 C7.65022085 5.47409796 11.93295585 12.70685998 13.75390625 21.83984375 C15.03633868 31.24884803 13.28445442 39.68434628 8.125 47.6875 C1.67052342 56.08236202 -6.32347811 59.92229708 -16.75 61.3125 C-26.0570264 61.61764841 -34.62800766 59.04782611 -42 53.3125 C-48.45386056 47.26446028 -52.08236829 38.72614234 -52.98828125 30.0234375 C-53.28427825 20.70732135 -50.41670865 12.33882869 -44.5078125 5.09375 C-32.15402467 -7.424755 -14.84496648 -9.12580017 0 0 Z M-42.75 10.3125 C-47.59767041 17.93427081 -48.77148661 25.35484823 -47.75 34.3125 C-44.56795934 43.94953744 -39.43498238 50.04305977 -30.5625 54.6875 C-23.4094643 57.58277635 -15.8202155 57.32053457 -8.5625 54.875 C-1.23906118 51.51400151 4.45150151 45.82343882 7.8125 38.5 C10.56898538 30.20490213 10.3580723 22.88876653 6.6875 14.9375 C3.90401143 9.95583588 1.10350683 6.33468364 -3.75 3.3125 C-4.40613281 2.90257812 -5.06226563 2.49265625 -5.73828125 2.0703125 C-18.93865972 -4.92806 -33.25648262 -0.34085887 -42.75 10.3125 Z " fill="#141316" transform="translate(53.75,6.6875)"/>
</svg>
