<?xml version="1.0" encoding="UTF-8"?>
<svg version="1.1" xmlns="http://www.w3.org/2000/svg" width="35" height="44">
<path d="M0 0 C-0.72008406 4.60853797 -2.31295939 8.67237409 -4 13 C-3.15695313 13.13277344 -2.31390625 13.26554688 -1.4453125 13.40234375 C-0.34960938 13.57894531 0.74609375 13.75554688 1.875 13.9375 C2.96554688 14.11152344 4.05609375 14.28554687 5.1796875 14.46484375 C8 15 8 15 10 16 C8.74984349 25.79852402 -2.76125913 32.27854979 -10 38 C-10.77214844 38.62777344 -11.54429688 39.25554688 -12.33984375 39.90234375 C-13.37818359 40.72412109 -13.37818359 40.72412109 -14.4375 41.5625 C-15.03433594 42.03816406 -15.63117187 42.51382813 -16.24609375 43.00390625 C-18 44 -18 44 -22 44 C-22.47618831 39.34866066 -21.07415149 37.00276024 -18.5 33.1875 C-17.8503125 32.21167969 -17.200625 31.23585938 -16.53125 30.23046875 C-16.0259375 29.49441406 -15.520625 28.75835938 -15 28 C-19.455 27.01 -19.455 27.01 -24 26 C-23.53886308 16.77726158 -15.12775525 9.28901196 -9 3 C-5.81643231 0.3089843 -4.20273568 -0.35022797 0 0 Z M-9 9 C-10.3483958 10.5528778 -11.65360218 12.14338645 -12.9375 13.75 C-13.64777344 14.63171875 -14.35804687 15.5134375 -15.08984375 16.421875 C-16.68862445 18.57973852 -17.91061203 20.55885838 -19 23 C-17.94021067 24.28612676 -17.94021067 24.28612676 -15.49609375 24.09765625 C-14.48675781 24.08605469 -13.47742188 24.07445312 -12.4375 24.0625 C-11.42558594 24.05347656 -10.41367188 24.04445313 -9.37109375 24.03515625 C-8.58863281 24.02355469 -7.80617188 24.01195312 -7 24 C-7.7734375 25.175625 -7.7734375 25.175625 -8.5625 26.375 C-9.036875 27.24125 -9.51125 28.1075 -10 29 C-9.67 29.66 -9.34 30.32 -9 31 C-7.84371094 29.84371094 -7.84371094 29.84371094 -6.6640625 28.6640625 C-3.109375 25.109375 0.4453125 21.5546875 4 18 C-0.29 17.34 -4.58 16.68 -9 16 C-8.67 13.69 -8.34 11.38 -8 9 C-8.33 9 -8.66 9 -9 9 Z " fill="#FFC900" transform="translate(24,0)"/>
</svg>
