<?xml version="1.0" encoding="UTF-8"?>
<svg version="1.1" xmlns="http://www.w3.org/2000/svg" width="1213" height="1379">
<path d="M0 0 C7.51215883 5.375308 12.0454796 12.64965745 13.68359375 21.7109375 C14.1653656 25.3866783 14.43922458 27.74482627 13.25 31.3125 C13.92679141 31.4286231 14.60358282 31.5447462 15.30088305 31.66438818 C21.72310861 32.79483395 28.03677557 34.15266802 34.35821533 35.74768066 C35.31390561 35.98578602 36.26959589 36.22389138 37.25424647 36.46921206 C40.42717877 37.2606383 43.59883306 38.05706596 46.77050781 38.85351562 C49.06076704 39.42588245 51.35110323 39.99794136 53.64151001 40.56971741 C59.86110937 42.12333491 66.07960109 43.68134393 72.29789066 45.24019432 C78.21288833 46.72269419 84.12884023 48.20137894 90.04468665 49.68048745 C101.83975165 52.62967581 113.6339842 55.58217955 125.42773438 58.53662109 C136.70127812 61.36074162 147.97532211 64.18285201 159.25 67.00244141 C159.93652584 67.17413107 160.62305168 67.34582074 161.33038133 67.52271312 C164.09535245 68.21418895 166.86032426 68.90566202 169.62529728 69.59713027 C263.42114441 93.05417697 263.42114441 93.05417697 305.96112537 103.87796021 C336.30674562 111.59821949 366.68412553 119.19106171 397.0625 126.78125 C398.37009671 127.10797362 399.67769324 127.43469799 400.98528957 127.76142311 C421.07299127 132.78059164 441.16143895 137.79677224 461.25 142.8125 C481.99547734 147.99224713 502.74076621 153.17274694 523.48536795 158.35599986 C525.43627882 158.84344488 527.38719764 159.33085803 529.33811808 159.81826472 C562.85609785 168.19238034 596.36403143 176.60357917 629.84616411 185.11991435 C646.34604564 189.3166381 662.85517063 193.47241904 679.3828125 197.55859375 C681.20507073 198.0097235 683.02731635 198.46090417 684.84954834 198.91213989 C691.85990429 200.6473385 698.87051618 202.38139173 705.88427734 204.1027832 C710.37694696 205.20574297 714.86758688 206.31664252 719.3569603 207.43293953 C721.01556849 207.84377719 722.67490631 208.25168258 724.33502579 208.65637016 C726.59134875 209.20663121 728.84493118 209.7669967 731.09814453 210.32983398 C732.36514191 210.64194321 733.63213928 210.95405243 734.93753052 211.27561951 C738.12933368 212.27472862 740.56306163 213.32832634 743.25 215.3125 C743.6875 217.875 743.6875 217.875 743.25 220.3125 C742.59 220.9725 741.93 221.6325 741.25 222.3125 C733.78751098 221.95197791 726.72279465 220.1019838 719.50341797 218.27172852 C718.25065063 217.95912079 716.9978833 217.64651306 715.70715332 217.32443237 C712.27192912 216.46705001 708.83857671 215.60238156 705.40552282 214.73635602 C701.72957451 213.81037512 698.051956 212.89107226 694.37454224 211.97093201 C688.13429766 210.40856613 681.89514282 208.84191299 675.65673828 207.2722168 C667.13636529 205.12833948 658.61416606 202.99180508 650.09150267 200.857054 C625.41344835 194.67484379 600.73931291 188.47695005 576.08300781 182.20849609 C575.42217862 182.04050802 574.76134943 181.87251994 574.08049512 181.69944131 C572.05847093 181.18542141 570.03645263 180.67137836 568.01443481 180.15733337 C533.17672306 171.30084335 498.31125209 162.55721567 463.4375 153.84375 C462.13339939 153.51789792 460.82929887 153.19204545 459.52519846 152.86619258 C439.43400395 147.84613937 419.34205683 142.82910058 399.25 137.8125 C378.50676913 132.63331377 357.76370391 127.45346596 337.02136815 122.27069584 C335.060158 121.78066482 333.0989417 121.29065847 331.13772488 120.80065417 C300.19885357 113.07046345 269.26597697 105.31875478 238.36047077 97.45617032 C211.39850142 90.59693271 184.41318409 83.83265995 157.421875 77.08984375 C155.84196935 76.69513311 155.84196935 76.69513311 154.23014641 76.29244852 C139.24896487 72.54976302 124.26716671 68.80954884 109.28520203 65.06999969 C93.95618917 61.24381617 78.62727198 57.41725128 63.29899907 53.58810431 C57.18929309 52.06191572 51.07930376 50.53686849 44.96908522 49.01273334 C41.21906414 48.07708531 37.46928393 47.14047488 33.71957016 46.20359612 C31.98253715 45.76980699 30.24540223 45.33642572 28.50815964 44.90347672 C26.14585478 44.31469536 23.78391306 43.72447895 21.42205811 43.13389587 C20.73216506 42.96232135 20.04227201 42.79074683 19.33147311 42.61397308 C16.59819192 41.92916448 13.92475684 41.20408561 11.25 40.3125 C11.064375 40.9725 10.87875 41.6325 10.6875 42.3125 C6.72802196 50.57575852 0.01884093 55.43820031 -7.9765625 59.421875 C-15.20808495 61.74411038 -25.74396952 61.65851106 -32.8125 58.6875 C-34.15214042 57.94268062 -35.46665457 57.15060314 -36.75 56.3125 C-37.79027344 55.69375 -37.79027344 55.69375 -38.8515625 55.0625 C-45.5826027 50.62555964 -49.87509822 44.03091303 -52.125 36.3125 C-54.04006959 26.35812788 -52.48082842 17.87830443 -47.46484375 9.05078125 C-36.53995909 -6.92572139 -15.98590444 -9.84366935 0 0 Z " fill="#121211" transform="translate(228.75,240.6875)"/>
<path d="M0 0 C0.33 1.98 0.66 3.96 1 6 C-4.14661534 9.79602424 -9.56660083 12.02713292 -15.50390625 14.34375 C-16.52574509 14.7491098 -17.54758392 15.1544696 -18.60038757 15.57211304 C-20.78477963 16.43792019 -22.97039119 17.30065582 -25.15710449 18.1605835 C-30.89803059 20.41861524 -36.62988607 22.69949367 -42.36328125 24.9765625 C-43.48624603 25.42178253 -44.60921082 25.86700256 -45.76620483 26.32571411 C-53.62261359 29.44285036 -61.45114629 32.61616929 -69.25 35.875 C-82.96909615 41.5967928 -96.73300282 47.20706307 -110.5 52.8125 C-111.68342987 53.29440796 -112.86685974 53.77631592 -114.08615112 54.27282715 C-129.04272473 60.3624706 -144.00437073 66.43947349 -158.97290039 72.49966431 C-173.5561858 78.40448367 -188.12187618 84.35217223 -202.68692017 90.30181885 C-216.67947312 96.01724425 -230.67887965 101.71513527 -244.68945312 107.38623047 C-258.30375524 112.897788 -271.90306065 118.44576282 -285.5 124 C-300.55471668 130.14972715 -315.61518801 136.28458212 -330.68945312 142.38623047 C-344.30375524 147.897788 -357.90306065 153.44576282 -371.5 159 C-385.82582816 164.85198223 -400.15562575 170.69361923 -414.5 176.5 C-429.26015145 182.47515782 -444.00712619 188.48234255 -458.75 194.5 C-460.30738892 195.1355481 -460.30738892 195.1355481 -461.89624023 195.78393555 C-474.27278238 200.8351235 -486.64312877 205.900867 -499 211 C-499 213.51345797 -498.95916875 216.0275864 -498.859375 218.5390625 C-498.50906623 229.37607674 -499.58416504 237.11835157 -506.625 245.8125 C-512.06679748 251.58100952 -519.48916793 255.69083061 -527.4765625 256.23828125 C-535.45028332 256.45227618 -542.08385038 256.44906619 -549 252 C-549.69480469 251.57589844 -550.38960937 251.15179687 -551.10546875 250.71484375 C-555.04233904 248.06318065 -557.66781216 245.28864843 -560.23828125 241.29296875 C-560.76075439 240.48754639 -561.28322754 239.68212402 -561.8215332 238.85229492 C-562.21042725 238.2410376 -562.59932129 237.62978027 -563 237 C-585.28714304 246.00183488 -607.56140312 255.03439551 -629.8125 264.125 C-663.89204895 278.04659455 -663.89204895 278.04659455 -678.5090332 283.94580078 C-679.23161819 284.2374411 -679.95420319 284.52908142 -680.69868469 284.82955933 C-682.11261925 285.40022649 -683.52658936 285.97080555 -684.94059753 286.54129028 C-688.90475196 288.1435021 -692.85970061 289.76596964 -696.80664062 291.41012573 C-698.59987421 292.15623139 -700.39560348 292.89632996 -702.19140625 293.63623047 C-704.31813097 294.51284531 -706.44091792 295.39910902 -708.55859375 296.29736328 C-709.47769531 296.6736084 -710.39679688 297.04985352 -711.34375 297.4375 C-712.12943359 297.76621094 -712.91511719 298.09492187 -713.72460938 298.43359375 C-716.48303195 299.12023971 -718.29080987 298.78736566 -721 298 C-722 297 -722 297 -722.4375 294.6875 C-722 292 -722 292 -719.53320312 290.06787109 C-715.5835362 287.59860407 -711.35343091 285.92844331 -707.03125 284.2265625 C-705.70077133 283.69276222 -705.70077133 283.69276222 -704.34341431 283.1481781 C-702.414237 282.37503072 -700.48381625 281.60498038 -698.55230713 280.837677 C-694.35045918 279.16828917 -690.15476502 277.48367486 -685.95852661 275.80024719 C-683.73006102 274.90646741 -681.50127456 274.01348726 -679.27218628 273.1212616 C-671.37199154 269.95805506 -663.48302476 266.76817525 -655.6015625 263.55859375 C-654.49204224 263.10705933 -653.38252197 262.6555249 -652.23937988 262.19030762 C-646.61491278 259.89923542 -640.99458839 257.59858675 -635.37988281 255.28369141 C-625.06843745 251.04121923 -614.74955577 246.86490509 -604.29940796 242.97398376 C-599.70012339 241.25763908 -595.11681161 239.50077978 -590.53411865 237.74069214 C-588.36439249 236.92100123 -586.18679561 236.12181662 -584.00152588 235.34451294 C-572.27860675 231.81311258 -572.27860675 231.81311258 -564.32885742 223.48413086 C-563.82810651 219.88629075 -563.89345238 216.6196369 -564 213 C-560.94261085 203.83381715 -555.3357905 197.52452201 -546.8125 193.125 C-538.30859089 189.08062118 -529.31461272 188.59560651 -520.3125 191.5625 C-514.90442145 193.75560162 -510.13109214 196.85870763 -506 201 C-506 201.66 -506 202.32 -506 203 C-505.4323291 202.75580322 -504.8646582 202.51160645 -504.27978516 202.26000977 C-487.9631049 195.25960696 -471.54065581 188.54223823 -455.07592773 181.89916992 C-453.2328906 181.15548467 -451.3898733 180.41175024 -449.546875 179.66796875 C-448.61561295 179.29214157 -447.68435089 178.91631439 -446.72486877 178.52909851 C-435.53303915 174.00889109 -424.36059384 169.44127204 -413.1875 164.875 C-398.9660553 159.06413892 -384.74050203 153.26400801 -370.5 147.5 C-356.15555116 141.69380414 -341.82584584 135.85193703 -327.5 130 C-313.27797173 124.19060977 -299.05256581 118.39004403 -284.8125 112.625 C-269.8877677 106.58226278 -254.97351836 100.51399665 -240.0625 94.4375 C-238.92472107 93.9738504 -237.78694214 93.51020081 -236.61468506 93.03250122 C-228.40960493 89.68878826 -220.20477494 86.34446176 -212 83 C-202.64600148 79.18708733 -193.2918899 75.37445239 -183.9375 71.5625 C-182.79955994 71.09876984 -181.66161987 70.63503967 -180.48919678 70.15725708 C-166.00569158 64.25545428 -151.51706174 58.36658271 -137.02023315 52.49758911 C-123.50287662 47.02434448 -110.00060186 41.51442507 -96.5 36 C-78.13052909 28.49768454 -59.75895649 21.00104104 -41.35733032 13.57788086 C-37.03080132 11.82972784 -32.71388837 10.05975003 -28.40287781 8.27368164 C-25.59921564 7.11386337 -22.79158915 5.96385946 -19.98324585 4.81542969 C-18.67876601 4.27908086 -17.37614437 3.73818622 -16.07559204 3.19238281 C-14.30527565 2.44984274 -12.52778637 1.72447327 -10.75 1 C-9.75484375 0.5875 -8.7596875 0.175 -7.734375 -0.25 C-4.72040874 -1.07668789 -2.96964507 -0.86704965 0 0 Z " fill="#121212" transform="translate(990,682)"/>
<path d="M0 0 C2 3 2 3 1.625 5.6875 C1.315625 6.8321875 1.315625 6.8321875 1 8 C-4.20329241 9.95111716 -9.35662614 10.83516781 -14.81939697 11.68313599 C-15.80316496 11.84001983 -16.78693294 11.99690367 -17.80051208 12.15854156 C-21.09314364 12.68234347 -24.3868814 13.19882186 -27.68066406 13.71533203 C-30.04287503 14.08957101 -32.40501528 14.46425657 -34.76708984 14.83935547 C-40.5134898 15.75068494 -46.26062215 16.65727943 -52.00811079 17.5617155 C-58.69940529 18.61489696 -65.38981971 19.67361765 -72.0801973 20.73260544 C-84.0134259 22.62128036 -95.94740686 24.50515754 -107.88183594 26.38623047 C-119.46828002 28.21246123 -131.05424088 30.04171663 -142.63964844 31.87451172 C-143.35382023 31.9874921 -144.06799202 32.10047249 -144.80380538 32.21687652 C-146.2424776 32.44447373 -147.68114973 32.67207148 -149.11982177 32.89966976 C-150.1842924 33.06806891 -150.1842924 33.06806891 -151.27026749 33.23987007 C-151.97809927 33.3518504 -152.68593106 33.46383072 -153.41521229 33.57920439 C-164.45128061 35.32502806 -175.48772973 37.06844223 -186.52424081 38.81146447 C-189.86012787 39.33832129 -193.19599515 39.86530287 -196.53181934 40.39255762 C-204.13667098 41.59456205 -211.74174027 42.79517087 -219.34719849 43.99333191 C-221.65562985 44.35723724 -223.96397837 44.72166848 -226.27223969 45.08665085 C-229.41078133 45.58281398 -232.5496153 46.07708299 -235.6885376 46.5708313 C-236.61244679 46.71732309 -237.53635598 46.86381489 -238.48826241 47.01474583 C-239.74270768 47.21144928 -239.74270768 47.21144928 -241.02249527 47.41212654 C-241.74754643 47.52647738 -242.47259758 47.64082821 -243.21961999 47.75864422 C-245 48 -245 48 -247 48 C-246.9071875 49.423125 -246.9071875 49.423125 -246.8125 50.875 C-246.88697669 60.11010926 -250.58457919 67.49737929 -257 74 C-263.94393891 79.90041562 -272.6044796 83.73054038 -281.87109375 83.28125 C-293.66953543 81.72255679 -301.03729802 76.90550874 -308.58984375 67.890625 C-311.05383797 64.58709813 -312 62.09383814 -312 58 C-313.11908752 58.27008377 -314.23817505 58.54016754 -315.39117432 58.81843567 C-323.10915209 60.52871471 -330.93709527 61.6650938 -338.74121094 62.9050293 C-340.5373925 63.19244569 -342.33353926 63.48007968 -344.12965393 63.76791382 C-348.98628937 64.54533756 -353.84350364 65.31908178 -358.70091152 66.09166312 C-361.73685521 66.5746133 -364.77269706 67.05819876 -367.80850983 67.54197121 C-377.31160301 69.0561388 -386.81505427 70.5680296 -396.31902766 72.07666272 C-407.28376872 73.81719797 -418.24726683 75.56530803 -429.20976233 77.31992978 C-437.69305269 78.67727158 -446.17739155 80.02792093 -454.66255975 81.37347347 C-459.72758665 82.17682233 -464.79212188 82.98301531 -469.85558319 83.79617882 C-474.61174157 84.55980223 -479.36914367 85.31512702 -484.12763786 86.06405258 C-485.87404507 86.34038216 -487.61998113 86.61970831 -489.3653965 86.90223503 C-491.74636847 87.28716786 -494.12879626 87.66130195 -496.51190186 88.03276062 C-497.20324211 88.14714672 -497.89458236 88.26153283 -498.60687232 88.37938517 C-502.32661611 88.9461211 -505.3743917 89.07834243 -509 88 C-510 87 -510 87 -510.0625 83.9375 C-510.041875 82.968125 -510.02125 81.99875 -510 81 C-506.33060665 78.79459984 -502.48807842 78.25672895 -498.32603455 77.62057495 C-497.5488586 77.49635953 -496.77168265 77.37214411 -495.97095591 77.24416459 C-493.36563401 76.82943398 -490.75891565 76.42426752 -488.15209961 76.01904297 C-486.28439007 75.72375203 -484.41677233 75.42788001 -482.54924011 75.13146973 C-477.47600127 74.32801351 -472.40148912 73.53288157 -467.32669139 72.73933935 C-462.02092265 71.90837405 -456.71628976 71.07021891 -451.41151428 70.23294067 C-442.50380217 68.82806426 -433.59531089 67.42822158 -424.6862793 66.03173828 C-413.24247317 64.23790274 -401.79999754 62.43572288 -390.35791683 60.6309185 C-380.53050699 59.08087883 -370.70248125 57.53475782 -360.87436223 55.98922205 C-357.71023019 55.49146173 -354.54618626 54.99314428 -351.38215446 54.49474716 C-346.41593141 53.71271739 -341.44933078 52.93313019 -336.48242378 52.15545654 C-334.65652776 51.86921798 -332.83075438 51.58219578 -331.00511169 51.29434586 C-328.51939869 50.90257249 -326.03325848 50.51363539 -323.54698181 50.12545776 C-322.81916864 50.01009355 -322.09135547 49.89472934 -321.34148735 49.77586925 C-318.52279023 49.3383824 -315.85805147 49 -313 49 C-313.12375 47.9275 -313.2475 46.855 -313.375 45.75 C-313.36125761 38.0130323 -308.79510328 30.52666213 -303.625 25 C-296.15827323 18.27012127 -287.12447491 15.65019775 -277.1875 16 C-268.51354108 16.96254391 -260.85348615 20.52472944 -254.9375 27 C-249 34.55945122 -249 34.55945122 -249 39 C-247.07956894 38.55589751 -247.07956894 38.55589751 -245.1203413 38.10282326 C-240.13058156 36.99581411 -235.12252986 36.14708797 -230.07453918 35.35482788 C-229.1155315 35.20202759 -228.15652382 35.04922731 -227.1684553 34.89179671 C-223.97705982 34.38402011 -220.78504808 33.88023289 -217.59301758 33.37646484 C-215.29599967 33.01186981 -212.99901879 32.64704138 -210.70207214 32.28199768 C-204.4796867 31.29390548 -198.25673629 30.30941662 -192.03363633 29.3258357 C-186.17876775 28.40013478 -180.32422252 27.47239436 -174.46963819 26.54489775 C-162.17174912 24.59679699 -149.87327391 22.65241681 -137.57462313 20.70913155 C-126.32685115 18.93176697 -115.07986454 17.1494863 -103.83323172 15.36492889 C-92.27344584 13.53073184 -80.7131205 11.69997087 -69.15220946 9.87287867 C-62.66618412 8.84772528 -56.18038806 7.82117208 -49.69513893 6.79111862 C-43.60138474 5.82339126 -37.50694426 4.86011001 -31.41194344 3.90026665 C-29.17435783 3.54712134 -26.93702147 3.19239271 -24.69995499 2.83597374 C-21.64879696 2.35010485 -18.59679465 1.86993652 -15.54450989 1.39120483 C-14.65764411 1.24860399 -13.77077834 1.10600314 -12.85703784 0.95908105 C-3.93563848 -0.42719034 -3.93563848 -0.42719034 0 0 Z " fill="#131212" transform="translate(944,568)"/>
<path d="M0 0 C0.66 0.66 1.32 1.32 2 2 C1.86652114 5.15728847 1.4268 6.57774042 -0.8359375 8.81640625 C-1.67382812 9.39261719 -2.51171875 9.96882812 -3.375 10.5625 C-4.38175781 11.25601563 -5.38851563 11.94953125 -6.42578125 12.6640625 C-11.22610675 15.82985883 -16.09232062 18.89301106 -20.96777344 21.94140625 C-28.07979658 26.39157137 -35.10995397 30.96134631 -42.125 35.5625 C-43.25129196 36.30087807 -44.377594 37.03924078 -45.50390625 37.77758789 C-47.67727976 39.2024226 -49.85062071 40.62730699 -52.02392578 42.05224609 C-58.01060287 45.97035191 -64.02156007 49.85082698 -70.03320312 53.73046875 C-73.46107017 55.94309395 -76.88687358 58.15890792 -80.3125 60.375 C-81.00674072 60.82407715 -81.70098145 61.2731543 -82.41625977 61.73583984 C-87.94906734 65.31637573 -93.47524306 68.90705759 -99 72.5 C-107.30001525 77.89778982 -115.60884956 83.28176625 -123.92333984 88.65722656 C-127.44948316 90.93723929 -130.97469889 93.21868538 -134.5 95.5 C-138.71440036 98.22724878 -142.92896014 100.95424861 -147.14453125 103.6796875 C-154.7693825 108.61004244 -162.38807908 113.54970195 -170 118.5 C-178.30001525 123.89778982 -186.60884956 129.28176625 -194.92333984 134.65722656 C-198.44948316 136.93723929 -201.97469889 139.21868538 -205.5 141.5 C-209.71440036 144.22724878 -213.92896014 146.95424861 -218.14453125 149.6796875 C-225.7693825 154.61004244 -233.38807908 159.54970195 -241 164.5 C-249.30001525 169.89778982 -257.60884956 175.28176625 -265.92333984 180.65722656 C-269.44948316 182.93723929 -272.97469889 185.21868538 -276.5 187.5 C-280.71440036 190.22724878 -284.92896014 192.95424861 -289.14453125 195.6796875 C-296.7693825 200.61004244 -304.38807908 205.54970195 -312 210.5 C-321.67767622 216.79373087 -331.36873543 223.06658429 -341.06347656 229.33398438 C-349.3823469 234.71239512 -357.6955585 240.09933164 -366 245.5 C-374.30001525 250.89778982 -382.60884956 256.28176625 -390.92333984 261.65722656 C-394.44948316 263.93723929 -397.97469889 266.21868538 -401.5 268.5 C-405.71440036 271.22724878 -409.92896014 273.95424861 -414.14453125 276.6796875 C-422.61767191 282.15856041 -431.08235353 287.65025959 -439.5402832 293.15258789 C-443.56491787 295.77010026 -447.59155698 298.38435823 -451.625 300.98828125 C-452.35678467 301.46096436 -453.08856934 301.93364746 -453.8425293 302.4206543 C-455.26220374 303.33652665 -456.68291317 304.25079701 -458.10473633 305.16333008 C-461.28158457 307.20860437 -464.42683747 309.27892686 -467.51171875 311.4609375 C-468.55972656 312.19570312 -469.60773437 312.93046875 -470.6875 313.6875 C-471.57824219 314.33074219 -472.46898437 314.97398437 -473.38671875 315.63671875 C-476.51712751 317.26977205 -478.51496004 317.41430545 -482 317 C-484 315 -484 315 -484.21484375 312.26953125 C-482.28978325 307.08858064 -478.19380127 305.40467298 -473.5625 302.6875 C-471.54818207 301.45785145 -469.53521754 300.2259838 -467.5234375 298.9921875 C-466.45963867 298.34604492 -465.39583984 297.69990234 -464.29980469 297.03417969 C-458.68778395 293.57462384 -453.19273954 289.93865976 -447.6875 286.3125 C-445.48472074 284.86796223 -443.28160347 283.42393974 -441.078125 281.98046875 C-440.03849609 281.29903809 -438.99886719 280.61760742 -437.92773438 279.91552734 C-431.96113165 276.01176108 -425.97095708 272.14452916 -419.97998047 268.27832031 C-416.48479698 266.02175055 -412.99259689 263.76057022 -409.5 261.5 C-405.28562543 258.77271138 -401.07103984 256.04575138 -396.85546875 253.3203125 C-389.2306175 248.38995756 -381.61192092 243.45029805 -374 238.5 C-365.69998475 233.10221018 -357.39115044 227.71823375 -349.07666016 222.34277344 C-345.55051684 220.06276071 -342.02530111 217.78131462 -338.5 215.5 C-334.28559964 212.77275122 -330.07103986 210.04575139 -325.85546875 207.3203125 C-318.2306175 202.38995756 -310.61192092 197.45029805 -303 192.5 C-294.69998475 187.10221018 -286.39115044 181.71823375 -278.07666016 176.34277344 C-274.55051684 174.06276071 -271.02530111 171.78131462 -267.5 169.5 C-263.28559964 166.77275122 -259.07103986 164.04575139 -254.85546875 161.3203125 C-247.2306175 156.38995756 -239.61192092 151.45029805 -232 146.5 C-222.32232378 140.20626913 -212.63126457 133.93341571 -202.93652344 127.66601562 C-194.6176531 122.28760488 -186.3044415 116.90066836 -178 111.5 C-169.69998475 106.10221018 -161.39115044 100.71823375 -153.07666016 95.34277344 C-149.55051684 93.06276071 -146.02530111 90.78131462 -142.5 88.5 C-138.28559964 85.77275122 -134.07103986 83.04575139 -129.85546875 80.3203125 C-122.2306175 75.38995756 -114.61192092 70.45029805 -107 65.5 C-98.69998475 60.10221018 -90.39115044 54.71823375 -82.07666016 49.34277344 C-78.55051684 47.06276071 -75.02530111 44.78131462 -71.5 42.5 C-67.28559964 39.77275122 -63.07103986 37.04575139 -58.85546875 34.3203125 C-50.38897958 28.84574056 -41.9312699 23.35785329 -33.47949219 17.8605957 C-27.0898379 13.70557801 -20.69301975 9.56174388 -14.29101562 5.42578125 C-5.20989623 -0.44339542 -5.20989623 -0.44339542 0 0 Z " fill="#121212" transform="translate(1038,804)"/>
<path d="M0 0 C2.6875 0.6875 2.6875 0.6875 4.6875 2.6875 C4.67025879 8.60985568 1.61374861 11.64162475 -2.1875 15.75 C-5.64315198 19.56270866 -8.84673787 23.12670222 -11.3125 27.6875 C-10.549375 28.533125 -9.78625 29.37875 -9 30.25 C-3.93716109 36.44910106 -2.73100076 41.70002523 -2.96875 49.625 C-3.8061745 57.085691 -6.67142163 63.17302946 -12.2734375 68.21484375 C-19.23715165 73.24419286 -26.84582364 74.90370765 -35.3125 73.6875 C-39.09456158 72.59615885 -42.70210179 71.25177311 -46.3125 69.6875 C-51.94915588 76.2508788 -57.50402532 82.85463874 -62.8125 89.6875 C-66.88638808 94.9295176 -71.09270745 100.0318289 -75.40283203 105.08081055 C-78.71116701 108.96062818 -81.92162205 112.90400604 -85.08984375 116.8984375 C-93.75162669 127.76752892 -102.59655661 138.49304669 -111.40625 149.2421875 C-115.88750308 154.71386245 -120.35430874 160.19703435 -124.8125 165.6875 C-130.65877769 172.88745732 -136.52724667 180.06892597 -142.40625 187.2421875 C-146.88750308 192.71386245 -151.35430874 198.19703435 -155.8125 203.6875 C-161.65877769 210.88745732 -167.52724667 218.06892597 -173.40625 225.2421875 C-176.84668457 229.44300797 -180.28212652 233.64735884 -183.69921875 237.8671875 C-184.5794873 238.95350464 -184.5794873 238.95350464 -185.47753906 240.06176758 C-186.64323964 241.50091005 -187.80798112 242.94083 -188.97167969 244.3815918 C-189.7726709 245.37026245 -189.7726709 245.37026245 -190.58984375 246.37890625 C-191.06671631 246.96873291 -191.54358887 247.55855957 -192.03491211 248.16625977 C-193.3125 249.6875 -193.3125 249.6875 -195.3125 251.6875 C-198.4375 251.3125 -198.4375 251.3125 -201.3125 250.6875 C-202.1875 248.6875 -202.1875 248.6875 -202.3125 245.6875 C-200.68313179 242.73593955 -198.48058898 240.25741402 -196.3125 237.6875 C-194.95812898 236.02099939 -193.60397822 234.35431976 -192.25 232.6875 C-191.05850318 231.24082595 -189.86699489 229.79416134 -188.67529297 228.34765625 C-186.04096792 225.13851789 -183.42849399 221.91158291 -180.8125 218.6875 C-174.96650939 211.4873105 -169.09775217 204.30607261 -163.21875 197.1328125 C-158.73749692 191.66113755 -154.27069126 186.17796565 -149.8125 180.6875 C-143.96622231 173.48754268 -138.09775333 166.30607403 -132.21875 159.1328125 C-127.16714425 152.96472867 -122.13572374 146.78051811 -117.11035156 140.59106445 C-113.31374018 135.9162235 -109.50412131 131.25227306 -105.6875 126.59375 C-102.72161806 122.9644471 -99.76684694 119.32619437 -96.8125 115.6875 C-90.9662528 108.48751803 -85.09775321 101.30607387 -79.21875 94.1328125 C-76.91458999 91.31939973 -74.61316581 88.50377097 -72.3125 85.6875 C-71.79574707 85.05585937 -71.27899414 84.42421875 -70.74658203 83.7734375 C-69.03770945 81.68365667 -67.33117672 79.59198218 -65.625 77.5 C-64.82304199 76.52027222 -64.82304199 76.52027222 -64.00488281 75.52075195 C-62.42876178 73.58569055 -60.87061264 71.63707514 -59.3125 69.6875 C-58.72887695 68.98181885 -58.14525391 68.2761377 -57.54394531 67.54907227 C-56.98416992 66.84967529 -56.42439453 66.15027832 -55.84765625 65.4296875 C-55.07820679 64.48585205 -55.07820679 64.48585205 -54.29321289 63.52294922 C-53.96957764 62.91725098 -53.64594238 62.31155273 -53.3125 61.6875 C-54.26196288 58.22361301 -54.26196288 58.22361301 -55.4140625 56.01171875 C-57.62462414 50.29309189 -57.25873301 43.56124471 -55.36328125 37.8046875 C-51.68750273 30.03569188 -46.8441395 25.59279456 -39.3125 21.6875 C-36.08652672 20.61217557 -33.79775817 20.87593201 -30.46044922 21.16040039 C-22.98799587 21.69206072 -22.98799587 21.69206072 -16.4375 18.55859375 C-14.15156565 15.70514445 -12.20766525 12.81271965 -10.3125 9.6875 C-4.2638974 0.88495984 -4.2638974 0.88495984 0 0 Z " fill="#121211" transform="translate(1109.3125,891.3125)"/>
<path d="M0 0 C2.04562709 1.4628385 3.88913139 2.99910079 5.73046875 4.7109375 C6.56384766 5.48244141 6.56384766 5.48244141 7.4140625 6.26953125 C13.5613386 12.6620852 15.92168353 20.53481566 16.23046875 29.2734375 C15.89491412 38.71370764 12.34079621 46.92588773 5.73046875 53.7109375 C-2.7096282 60.42126193 -11.04879837 63.3725166 -21.890625 62.5 C-31.43330826 60.92195877 -38.41227762 56.59206018 -44.5390625 49.14453125 C-50.60229887 40.6176774 -51.34666406 32.00477375 -50.26953125 21.7109375 C-48.1688358 12.47533559 -42.11568452 4.95340687 -34.28125 -0.2578125 C-23.47226171 -5.79873077 -10.65885359 -6.05408207 0 0 Z " fill="#FCFCFC" transform="translate(563.26953125,215.2890625)"/>
<path d="M0 0 C6.29258787 5.15890301 12.37668085 11.03090026 13.8125 19.3125 C14.77904465 30.79021771 14.05506871 40.38359374 6.5625 49.625 C-0.22234079 56.83207337 -8.32437679 60.62165726 -18.15234375 61.3359375 C-27.24666501 61.26571108 -35.34971047 58.29386658 -42.1875 52.3125 C-48.70197085 45.66686531 -52.32311845 37.04270174 -52.625 27.75 C-52.21914915 18.55944196 -49.5860993 11.01373575 -43.1875 4.3125 C-31.05050418 -6.56639259 -13.91744008 -9.86042569 0 0 Z " fill="#FAF8F6" transform="translate(917.1875,786.6875)"/>
<path d="M0 0 C7.8486229 5.12655716 12.0771273 10.47356939 15.02734375 19.32421875 C15.83967843 29.86894773 14.68401548 36.47921564 7.83984375 44.57421875 C2.76192628 49.9669174 -2.98547065 53.86743448 -10.57421875 54.5625 C-20.4076817 54.80388992 -27.20493151 52.59025914 -34.47265625 45.89453125 C-41.23393889 38.81631348 -42.51925276 31.33209007 -42.33984375 21.86328125 C-41.54143232 14.16795407 -38.14757588 9.11407895 -32.59765625 3.88671875 C-23.28441577 -3.65837788 -10.9723531 -5.82331589 0 0 Z " fill="#FCC900" transform="translate(222.97265625,242.67578125)"/>
<path d="M0 0 C6.2687844 3.44168555 11.94032369 8.97245877 14.53125 15.7890625 C16.18299491 23.57979266 16.34323015 33.0653092 12 40 C6.9706966 46.78502868 1.53699287 52.29567229 -7 54 C-16.6253341 55.05611305 -24.04037885 53.6638007 -32 48 C-38.65922079 41.68379414 -41.98178469 34.17680621 -42.4375 25.0625 C-42.15721471 16.87052532 -38.81644158 9.68424972 -33 4 C-22.5670039 -3.61269431 -12.01064846 -5.46366753 0 0 Z " fill="#F36138" transform="translate(677,592)"/>
<path d="M0 0 C7.28397385 4.9966284 10.38778536 11.26782482 12.5625 19.7578125 C13.73009505 27.03888276 11.27068569 33.64647428 7.8125 39.9453125 C2.60754405 46.45150743 -3.9135342 51.76665369 -12.4375 52.7578125 C-20.95863911 53.60653153 -28.29616304 51.38836733 -35.1875 46.2578125 C-41.59886003 40.16625902 -44.78183255 32.38358255 -45.125 23.6328125 C-44.71524459 15.18626355 -41.82673839 9.10043431 -36.1875 2.8828125 C-25.70631562 -6.6108513 -12.09324114 -6.91501821 0 0 Z " fill="#FCFCFC" transform="translate(474.4375,881.2421875)"/>
<path d="M0 0 C6.4371334 3.64004567 11.39802901 9.25658702 13.75 16.3125 C14.31813073 22.90281651 13.1233194 27.60296587 9.75 33.3125 C5.52542573 38.17076041 1.46364425 42.00637527 -5.140625 42.55078125 C-14.10554945 42.74884353 -18.1876857 41.82086235 -25 35.9375 C-30.17711277 29.8975351 -30.91086214 24.55423089 -30.72265625 16.796875 C-29.87680742 10.56136132 -27.08443045 6.52773284 -22.17578125 2.69140625 C-15.18755104 -1.86838167 -7.8393673 -3.68911402 0 0 Z " fill="#FCC800" transform="translate(1088.25,917.6875)"/>
<path d="M0 0 C2.04562709 1.4628385 3.88913139 2.99910079 5.73046875 4.7109375 C6.56384766 5.48244141 6.56384766 5.48244141 7.4140625 6.26953125 C13.5613386 12.6620852 15.92168353 20.53481566 16.23046875 29.2734375 C15.89491412 38.71370764 12.34079621 46.92588773 5.73046875 53.7109375 C-2.7096282 60.42126193 -11.04879837 63.3725166 -21.890625 62.5 C-31.43330826 60.92195877 -38.41227762 56.59206018 -44.5390625 49.14453125 C-50.60229887 40.6176774 -51.34666406 32.00477375 -50.26953125 21.7109375 C-48.1688358 12.47533559 -42.11568452 4.95340687 -34.28125 -0.2578125 C-23.47226171 -5.79873077 -10.65885359 -6.05408207 0 0 Z M-41.64453125 13.3359375 C-46.0988784 19.84613717 -46.89816448 27.08606394 -45.64453125 34.7734375 C-43.59312037 43.49193375 -38.51455098 49.59202637 -31.26953125 54.7109375 C-25.13980284 58.31967113 -18.20583011 58.74838146 -11.26953125 57.7109375 C-1.56704135 54.46885703 4.30184593 49.13037357 9.66796875 40.6484375 C12.39431832 33.17240974 12.01830419 23.48301083 8.79296875 16.2734375 C4.77855603 9.46934815 -1.43527165 3.45890167 -9.109375 1.109375 C-23.1182524 -1.4745409 -32.40083497 3.11922056 -41.64453125 13.3359375 Z " fill="#171717" transform="translate(563.26953125,215.2890625)"/>
<path d="M0 0 C6.29258787 5.15890301 12.37668085 11.03090026 13.8125 19.3125 C14.77904465 30.79021771 14.05506871 40.38359374 6.5625 49.625 C-0.22234079 56.83207337 -8.32437679 60.62165726 -18.15234375 61.3359375 C-27.24666501 61.26571108 -35.34971047 58.29386658 -42.1875 52.3125 C-48.70197085 45.66686531 -52.32311845 37.04270174 -52.625 27.75 C-52.21914915 18.55944196 -49.5860993 11.01373575 -43.1875 4.3125 C-31.05050418 -6.56639259 -13.91744008 -9.86042569 0 0 Z M-42.1875 10.3125 C-47.68132517 17.66275511 -48.24214422 26.41900982 -47.1875 35.3125 C-44.28197219 43.49986229 -39.48262538 49.5066113 -31.8359375 53.55859375 C-23.65800393 57.21714298 -16.2306236 57.38717243 -7.7421875 54.53125 C0.74201768 50.48373927 5.92999276 43.96352573 9.03515625 35.22265625 C11.27431336 26.83988214 9.49674044 20.07960362 5.8125 12.3125 C2.20293418 6.21092077 -3.71936035 2.96774847 -9.9375 0 C-23.4805957 -2.86488563 -32.87059159 0.35367861 -42.1875 10.3125 Z " fill="#161616" transform="translate(917.1875,786.6875)"/>
<path d="M0 0 C3.82514934 3.12966764 7.15183684 6.16561312 7.75 11.25 C8.32082146 17.18654317 7.17150843 21.43686887 3.75 26.25 C-1.01446874 30.04212818 -4.92268121 31.62904396 -11.05859375 31.52734375 C-16.53529068 30.83421455 -20.29272 28.4527364 -23.6875 24.1875 C-26.10882037 19.6354177 -26.59236361 16.38545409 -26.25 11.25 C-24.48141901 5.55123903 -22.16106791 2.62034073 -17.25 -0.75 C-11.14730504 -3.6686802 -5.84469499 -3.14714345 0 0 Z " fill="#F36138" transform="translate(713.25,1129.75)"/>
<path d="M0 0 C4.3743163 3.67840235 6.7827675 7.09060948 7.6875 12.75 C8.09500904 18.66385068 6.17163224 22.62898814 2.375 27.125 C-1.92505275 30.70837729 -5.46462959 31.79632028 -11.12890625 31.625 C-16.57137827 30.8231625 -20.29504417 28.5123163 -23.6875 24.25 C-26.16899057 19.58479773 -26.79668271 15.54077468 -26.25 10.3125 C-24.50568665 5.63039574 -22.11480974 2.47461706 -18.25 -0.6875 C-11.68411736 -3.41296072 -6.23484715 -3.23732448 0 0 Z " fill="#FACA00" transform="translate(838.25,499.6875)"/>
<path d="M0 0 C3.63464472 3.28004523 7.28904792 6.60935898 7.80078125 11.66796875 C7.97138413 18.17781556 7.67001594 22.15177484 3.5625 27.3125 C-1.40631907 31.26727436 -5.47314921 31.95981807 -11.78515625 31.69140625 C-17.34820317 30.89668526 -20.33646642 28.69584988 -23.875 24.25 C-26.50056428 18.96477321 -26.51438178 12.77254027 -24.77734375 7.19140625 C-22.92243204 3.45749306 -20.29465946 0.83069253 -16.5625 -1.02734375 C-10.84777773 -2.80268946 -5.3477927 -2.62528005 0 0 Z " fill="#F5F3F1" transform="translate(1015.4375,1108.6875)"/>
<path d="M0 0 C4.3743163 3.67840235 6.7827675 7.09060948 7.6875 12.75 C8.09500904 18.66385068 6.17163224 22.62898814 2.375 27.125 C-1.92505275 30.70837729 -5.46462959 31.79632028 -11.12890625 31.625 C-16.57137827 30.8231625 -20.29504417 28.5123163 -23.6875 24.25 C-26.16899057 19.58479773 -26.79668271 15.54077468 -26.25 10.3125 C-24.50568665 5.63039574 -22.11480974 2.47461706 -18.25 -0.6875 C-11.68411736 -3.41296072 -6.23484715 -3.23732448 0 0 Z M-19.25 6.3125 C-21.79993405 10.48670712 -22.08355164 14.54227376 -21.25 19.3125 C-19.53631391 22.38311968 -17.44098548 24.71700726 -14.25 26.3125 C-9.51906912 26.88967357 -6.10282657 26.74666625 -1.8125 24.5625 C2.0429932 21.17718889 2.58082642 19.60244853 3.25 14.5 C3.15913425 10.08888099 1.26834181 7.8175668 -1.64453125 4.66015625 C-7.33208988 -0.1140718 -14.11960642 2.01728677 -19.25 6.3125 Z " fill="#1A1911" transform="translate(838.25,499.6875)"/>
<path d="M0 0 C3.82514934 3.12966764 7.15183684 6.16561312 7.75 11.25 C8.32082146 17.18654317 7.17150843 21.43686887 3.75 26.25 C-1.01446874 30.04212818 -4.92268121 31.62904396 -11.05859375 31.52734375 C-16.53529068 30.83421455 -20.29272 28.4527364 -23.6875 24.1875 C-26.10882037 19.6354177 -26.59236361 16.38545409 -26.25 11.25 C-24.48141901 5.55123903 -22.16106791 2.62034073 -17.25 -0.75 C-11.14730504 -3.6686802 -5.84469499 -3.14714345 0 0 Z M-19.25 6.25 C-22.07792793 10.4918919 -22.03122286 14.26873743 -21.25 19.25 C-19.56987353 22.37291165 -17.46670326 24.64164837 -14.25 26.25 C-9.42089 26.77137294 -5.50833154 26.98402673 -1.25 24.5 C2.34489307 20.4557453 3.17172496 17.76914858 2.99609375 12.2109375 C2.62000831 9.21419323 1.70941609 7.53598544 -0.25 5.25 C-7.18004923 0.68246755 -12.8658252 1.05357865 -19.25 6.25 Z " fill="#1C1514" transform="translate(713.25,1129.75)"/>
<path d="M0 0 C3.63464472 3.28004523 7.28904792 6.60935898 7.80078125 11.66796875 C7.97138413 18.17781556 7.67001594 22.15177484 3.5625 27.3125 C-1.40631907 31.26727436 -5.47314921 31.95981807 -11.78515625 31.69140625 C-17.34820317 30.89668526 -20.33646642 28.69584988 -23.875 24.25 C-26.50056428 18.96477321 -26.51438178 12.77254027 -24.77734375 7.19140625 C-22.92243204 3.45749306 -20.29465946 0.83069253 -16.5625 -1.02734375 C-10.84777773 -2.80268946 -5.3477927 -2.62528005 0 0 Z M-18.4375 6.3125 C-20.91097438 9.79082335 -21.46240096 11.60282256 -21.3125 15.875 C-20.07034625 20.75488974 -18.8952443 23.31858343 -14.6875 26.1875 C-9.81978502 27.87247826 -6.34955427 27.1381598 -1.6875 25.125 C1.2700966 22.74249163 2.33890473 20.9153083 3.5625 17.3125 C3.86846118 12.72308227 3.1530687 10.04672055 0.25 6.4375 C-2.82916041 4.00281502 -4.87608877 2.56570182 -8.75 1.9375 C-12.5431959 2.46678315 -15.47597502 3.95640993 -18.4375 6.3125 Z " fill="#161515" transform="translate(1015.4375,1108.6875)"/>
<path d="M0 0 C1.40824893 0.08021999 2.81997231 0.10765977 4.23046875 0.09765625 C5.03291016 0.09443359 5.83535156 0.09121094 6.66210938 0.08789062 C7.49548828 0.07951172 8.32886719 0.07113281 9.1875 0.0625 C10.03248047 0.05798828 10.87746094 0.05347656 11.74804688 0.04882812 C13.83206155 0.03705403 15.91603977 0.0191189 18 0 C18 0.33 18 0.66 18 1 C17.10539062 1.01417969 16.21078125 1.02835938 15.2890625 1.04296875 C6.31211415 1.39707012 -0.92849349 2.48833512 -7.8046875 8.60546875 C-9.38431162 10.32262234 -10.69902827 12.06480455 -12 14 C-12.4125 14.57234375 -12.825 15.1446875 -13.25 15.734375 C-17.08701172 21.96951905 -16.80343977 28.91512205 -16 36 C-13.65416752 44.64320094 -8.44447975 50.32555922 -1 55 C-1 55.33 -1 55.66 -1 56 C-4.125 56.8125 -4.125 56.8125 -8 57 C-14.75780691 53.00048162 -19.22195914 45.47499397 -21.375 38 C-23.29006959 28.04562788 -21.73082842 19.56580443 -16.71484375 10.73828125 C-13.19687429 5.59361839 -6.62298633 -2.20766211 0 0 Z " fill="#171611" transform="translate(198,239)"/>
<path d="M0 0 C0.66 0.99 1.32 1.98 2 3 C1.21069203 5.48935591 0.1651105 7.669779 -1 10 C-1.64019397 18.09163201 -1.85142542 24.32929005 3 31 C3 31.66 3 32.32 3 33 C3.53625 33.268125 4.0725 33.53625 4.625 33.8125 C7 35 7 35 9.4375 36.625 C15.82289606 39.08953883 22.97412854 39.04530105 29.4375 36.8125 C32.44954832 34.6820268 35.23107618 32.43929003 38 30 C37.34 31.65 36.68 33.3 36 35 C35.34 35 34.68 35 34 35 C34 35.99 34 36.98 34 38 C29.26554576 40.41553788 24.81694634 40.36696293 19.625 40.375 C18.8 40.39949219 17.975 40.42398438 17.125 40.44921875 C11.25788221 40.47715741 7.78923318 39.43630657 3 36 C2.25 33.8125 2.25 33.8125 2 32 C1.01 31.67 0.02 31.34 -1 31 C-2.95518258 28.06438311 -3.23991059 25.71302617 -3.1953125 22.234375 C-3.18886719 21.34492187 -3.18242188 20.45546875 -3.17578125 19.5390625 C-3.15902344 18.61867188 -3.14226562 17.69828125 -3.125 16.75 C-3.11597656 15.81414063 -3.10695313 14.87828125 -3.09765625 13.9140625 C-3.07413636 11.60911343 -3.04126853 9.3046884 -3 7 C-2.34 7 -1.68 7 -1 7 C-1.020625 6.030625 -1.04125 5.06125 -1.0625 4.0625 C-1 1 -1 1 0 0 Z " fill="#4F480C" transform="translate(1060,921)"/>
<path d="M0 0 C0.99 0.33 1.98 0.66 3 1 C4.40824893 1.08021999 5.81997231 1.10765977 7.23046875 1.09765625 C8.03291016 1.09443359 8.83535156 1.09121094 9.66210938 1.08789062 C10.49548828 1.07951172 11.32886719 1.07113281 12.1875 1.0625 C13.4549707 1.05573242 13.4549707 1.05573242 14.74804688 1.04882812 C16.83206155 1.03705403 18.91603977 1.0191189 21 1 C21 1.33 21 1.66 21 2 C20.10539062 2.01417969 19.21078125 2.02835938 18.2890625 2.04296875 C9.35035108 2.39556184 1.76668065 3.38227812 -4.875 9.81640625 C-6.33388717 11.49623065 -7.6709629 13.2174739 -9 15 C-9.66 15.66 -10.32 16.32 -11 17 C-11.15624422 12.69351876 -11.07080879 9.27791027 -8.22265625 5.87890625 C-5.61427312 3.61013178 -3.09915163 1.54957582 0 0 Z " fill="#302A0F" transform="translate(195,238)"/>
<path d="M0 0 C5.45903435 0.77986205 9.2881131 2.96883721 13 7 C17.38974607 13.2055551 17.50216677 19.10957382 17.25 26.5 C17.23195313 27.51320313 17.21390625 28.52640625 17.1953125 29.5703125 C17.14856583 32.04788607 17.08306372 34.52342316 17 37 C16.34 37 15.68 37 15 37 C15.05800781 35.81664062 15.11601563 34.63328125 15.17578125 33.4140625 C15.68679229 20.41594945 15.68679229 20.41594945 10 9 C8.29711869 7.25985652 6.58789212 5.72385489 4.6484375 4.25390625 C2.94339309 2.95694119 1.48362379 1.54206958 0 0 Z " fill="#4F271F" transform="translate(676,591)"/>
<path d="M0 0 C3.26870835 0.24212654 4.2954751 1.27532907 6.75 3.5625 C9.15704306 6.67004476 9.68669132 9.14777514 9.42578125 13.0390625 C8.70968658 16.33703977 7.16892285 18.46959001 5 21 C2.09447319 22.79225127 -0.16486149 23.2952531 -3.5625 23.3125 C-4.70912109 23.33763672 -4.70912109 23.33763672 -5.87890625 23.36328125 C-8.47897923 22.91796488 -9.34831388 21.99996498 -11 20 C-10.25234375 20.09539063 -9.5046875 20.19078125 -8.734375 20.2890625 C-7.25710938 20.45535156 -7.25710938 20.45535156 -5.75 20.625 C-4.77546875 20.74101563 -3.8009375 20.85703125 -2.796875 20.9765625 C0.16542047 21.00138621 1.54870932 20.60448117 4 19 C6.71220499 15.47413351 6.41935279 11.24594703 6 7 C5.07669938 4.07621471 4.51939985 3.30552932 1.875 1.75 C1.25625 1.5025 0.6375 1.255 0 1 C0 0.67 0 0.34 0 0 Z " fill="#DBD300" transform="translate(832,503)"/>
<path d="M0 0 C0 0.66 0 1.32 0 2 C-0.99 2 -1.98 2 -3 2 C-3.66 3.65 -4.32 5.3 -5 7 C-5.66 7 -6.32 7 -7 7 C-6.61449761 13.65111662 -6.61449761 13.65111662 -3 19 C-2.01 19.33 -1.02 19.66 0 20 C0 20.66 0 21.32 0 22 C6.94007154 21.75648872 10.17267808 19.93291958 15 15 C13.71807512 18.9526017 12.54990635 20.82646085 9 23 C4.93458375 23.80503292 0.76043579 23.95254041 -2.94921875 21.9453125 C-5.87807831 19.54832816 -7.82713987 17.60108153 -8.23828125 13.79296875 C-8.43980708 6.71835156 -8.43980708 6.71835156 -6.125 2.9375 C-2.90322581 0 -2.90322581 0 0 0 Z " fill="#D05966" transform="translate(700,1133)"/>
<path d="M0 0 C0.33 0 0.66 0 1 0 C1.02578125 0.86882813 1.0515625 1.73765625 1.078125 2.6328125 C1.40873899 9.35028774 1.6419364 13.79844021 6 19 C6 19.66 6 20.32 6 21 C6.66 21 7.32 21 8 21 C8 21.66 8 22.32 8 23 C8.5775 23.28875 9.155 23.5775 9.75 23.875 C11.10480754 24.55240377 12.4450097 25.26223786 13.75 26.03125 C16.61530556 27.26492323 19.14371871 27.42241644 22.25 27.625 C23.86648438 27.73714844 23.86648438 27.73714844 25.515625 27.8515625 C26.33546875 27.90054688 27.1553125 27.94953125 28 28 C28 28.33 28 28.66 28 29 C18.04798944 29.53875546 12.87234234 29.20793202 5.25 22.625 C0.8368928 17.47637493 -0.3785288 13.37468431 -0.1875 6.625 C-0.16042969 5.37976563 -0.13335938 4.13453125 -0.10546875 2.8515625 C-0.07066406 1.91054688 -0.03585937 0.96953125 0 0 Z " fill="#E2D000" transform="translate(1058,931)"/>
<path d="M0 0 C2.97680554 2.78475357 3.8522414 5.06322874 4.05078125 9.13671875 C4.06128215 11.36641025 4.02486514 13.58468903 3.9375 15.8125 C3.6075 15.8125 3.2775 15.8125 2.9375 15.8125 C2.83953125 15.13703125 2.7415625 14.4615625 2.640625 13.765625 C1.74476836 8.13808998 1.74476836 8.13808998 -1 3.25 C-4.92296437 0.51581271 -8.39687746 0.49073293 -13.0625 0.8125 C-16.28840345 2.35213574 -18.67003646 4.16819819 -21.0625 6.8125 C-20.5001049 3.55060844 -19.6484495 1.90115152 -17.0625 -0.1875 C-11.58139428 -2.01453524 -5.39752099 -2.0929163 0 0 Z " fill="#4F271D" transform="translate(713.0625,1132.1875)"/>
<path d="M0 0 C0.99 0 1.98 0 3 0 C6.81400972 6.42675653 7.52964107 11.10026703 7.25 18.5 C7.23195312 19.4178125 7.21390625 20.335625 7.1953125 21.28125 C7.14863102 23.52196092 7.08318522 25.76039799 7 28 C6.34 28 5.68 28 5 28 C5.04640625 26.94941406 5.0928125 25.89882813 5.140625 24.81640625 C5.3935668 16.55200044 5.20343004 10.34334163 1 3 C0.67 2.01 0.34 1.02 0 0 Z " fill="#4C3F0D" transform="translate(232,250)"/>
<path d="M0 0 C0.99 0 1.98 0 3 0 C5.56780471 3.8415976 5.22688882 7.8139175 5.125 12.25 C5.11597656 12.99507812 5.10695313 13.74015625 5.09765625 14.5078125 C5.07418358 16.33868059 5.03831525 18.16938238 5 20 C4.34 20 3.68 20 3 20 C3 21.32 3 22.64 3 24 C2.34 24 1.68 24 1 24 C1.52268466 21.23723823 2.10869587 18.6739124 3 16 C3.42134358 9.78518213 2.4498235 5.71625482 0 0 Z " fill="#4E410D" transform="translate(1098,926)"/>
<path d="M0 0 C1.66611905 -0.042721 3.33382885 -0.04063832 5 0 C5.33 0.33 5.66 0.66 6 1 C8.69235776 1.23678716 11.36498156 1.42198025 14.0625 1.5625 C15.20041992 1.62727539 15.20041992 1.62727539 16.36132812 1.69335938 C18.24065438 1.79973633 20.12030244 1.90039934 22 2 C17.33096244 5.11269171 12.47152272 4.48651426 7 4 C4.38538251 3.24611862 2.40335617 2.31092155 0 1 C0 0.67 0 0.34 0 0 Z " fill="#CDC302" transform="translate(196,293)"/>
<path d="M0 0 C0.66 0 1.32 0 2 0 C0.22072835 6.32629919 -4.61187006 11.37403919 -9.9375 15 C-10.9584375 15.495 -10.9584375 15.495 -12 16 C-11.34 14.68 -10.68 13.36 -10 12 C-9.34 12 -8.68 12 -8 12 C-8 11.34 -8 10.68 -8 10 C-7.34 10 -6.68 10 -6 10 C-6 9.34 -6 8.68 -6 8 C-5.34 8 -4.68 8 -4 8 C-3.566875 7.13375 -3.566875 7.13375 -3.125 6.25 C-1.5625 3.125 -1.5625 3.125 0 0 Z " fill="#E1D400" transform="translate(234,278)"/>
<path d="M0 0 C-0.53109375 0.36351562 -1.0621875 0.72703125 -1.609375 1.1015625 C-6.15144754 4.33405938 -9.23059286 7.1535375 -12 12 C-13.31223496 8.06329512 -12.24296256 5.87511856 -11 2 C-9.68 2.33 -8.36 2.66 -7 3 C-7 2.01 -7 1.02 -7 0 C-3.98968256 -0.93423645 -3.13349732 -1.04449911 0 0 Z " fill="#584A0C" transform="translate(197,243)"/>
<path d="M0 0 C5.28 0 10.56 0 16 0 C16 0.66 16 1.32 16 2 C18.475 2.495 18.475 2.495 21 3 C21.33 4.32 21.66 5.64 22 7 C21.41734375 6.6390625 20.8346875 6.278125 20.234375 5.90625 C13.3266473 1.99621545 7.85609113 1.39257027 0 2 C0 1.34 0 0.68 0 0 Z " fill="#4D410D" transform="translate(1072,915)"/>
<path d="M0 0 C0.33 0.66 0.66 1.32 1 2 C0.01 3.485 0.01 3.485 -1 5 C-1.66 5 -2.32 5 -3 5 C-3 5.99 -3 6.98 -3 8 C-7.07723734 9.95031692 -10.31692422 10.21581971 -14.8125 10.125 C-15.97394531 10.10695313 -17.13539062 10.08890625 -18.33203125 10.0703125 C-19.21246094 10.04710937 -20.09289063 10.02390625 -21 10 C-21 9.67 -21 9.34 -21 9 C-20.13117188 8.90203125 -19.26234375 8.8040625 -18.3671875 8.703125 C-9.42677318 7.62695827 -9.42677318 7.62695827 -2 3 C-1.34 2.01 -0.68 1.02 0 0 Z " fill="#5D510C" transform="translate(1097,951)"/>
<path d="M0 0 C0 0.66 0 1.32 0 2 C-0.99 2 -1.98 2 -3 2 C-3.226875 2.556875 -3.45375 3.11375 -3.6875 3.6875 C-5.37550036 6.66159588 -7.46676517 8.72008865 -10 11 C-10.66 11 -11.32 11 -12 11 C-10.82612037 6.01101158 -7.81687611 4.01341878 -3.875 1.13671875 C-2 0 -2 0 0 0 Z " fill="#E2CC00" transform="translate(1072,918)"/>
<path d="M0 0 C6.08301873 0.42687851 10.03883126 1.3550597 15 5 C15.9375 7.75 15.9375 7.75 16 10 C15.5153125 9.60167969 15.030625 9.20335937 14.53125 8.79296875 C9.84798669 5.09138948 5.6824452 2.82650024 0 1 C0 0.67 0 0.34 0 0 Z " fill="#4E430D" transform="translate(216,240)"/>
<path d="M0 0 C6.17921554 1.72443224 10.53166868 4.5236874 14 10 C14 10.66 14 11.32 14 12 C10.63983107 10.87994369 9.30935087 9.62788203 7 7 C7 6.34 7 5.68 7 5 C4.66785852 3.79371992 2.50357861 2.8345262 0 2 C0 1.34 0 0.68 0 0 Z " fill="#DDD000" transform="translate(1085,917)"/>
<path d="M0 0 C0.66 0 1.32 0 2 0 C3.82729049 1.93530766 5.46895378 3.99047623 7.1484375 6.0546875 C8.87620242 8.09302792 8.87620242 8.09302792 11.1640625 9.0703125 C13 10 13 10 14 13 C6.72147665 10.50450628 3.43496345 6.61548517 0 0 Z " fill="#C85978" transform="translate(638,630)"/>
<path d="M0 0 C1.2065625 1.2375 1.2065625 1.2375 2.4375 2.5 C5.86264335 5.38690653 8.58727218 5.46931075 12.94921875 5.2734375 C15.1952964 5.03938579 15.1952964 5.03938579 18 4 C17.67 4.99 17.34 5.98 17 7 C14.91695462 7.05418326 12.83350232 7.09287551 10.75 7.125 C9.00976562 7.15980469 9.00976562 7.15980469 7.234375 7.1953125 C4.17213954 7.0103949 2.55797249 6.60823023 0 5 C0 3.35 0 1.7 0 0 Z " fill="#52480C" transform="translate(818,520)"/>
<path d="M0 0 C-1.62339805 1.70884005 -3.29319053 3.37446717 -5 5 C-5.66 5 -6.32 5 -7 5 C-7.33 3.35 -7.66 1.7 -8 0 C-5.13822943 -1.43088528 -3.06624227 -0.59991697 0 0 Z " fill="#2D2710" transform="translate(1068,919)"/>
<path d="M0 0 C0 0.66 0 1.32 0 2 C-1.64453125 3.62109375 -1.64453125 3.62109375 -3.8125 5.4375 C-6.31102718 7.54463676 -8.7242056 9.65241398 -11 12 C-10.51594564 7.68819268 -9.37995134 5.9410446 -6.0625 3.1875 C-5.35222656 2.58292969 -4.64195312 1.97835937 -3.91015625 1.35546875 C-2 0 -2 0 0 0 Z " fill="#EBCD00" transform="translate(197,243)"/>
<path d="M0 0 C0 0.33 0 0.66 0 1 C-0.845625 1.20625 -1.69125 1.4125 -2.5625 1.625 C-6.84653389 3.33861355 -9.67242567 5.86932356 -13 9 C-10.56115292 1.68345876 -7.80837632 -0.60064433 0 0 Z " fill="#EBCF00" transform="translate(832,502)"/>
<path d="M0 0 C0.66 0.33 1.32 0.66 2 1 C0.90344712 2.31886772 -0.20253423 3.62990057 -1.3125 4.9375 C-1.92738281 5.66839844 -2.54226563 6.39929688 -3.17578125 7.15234375 C-5 9 -5 9 -8 10 C-6.34908222 5.70761377 -3.26245434 3.1206085 0 0 Z " fill="#D25C74" transform="translate(686,632)"/>
<path d="M0 0 C2.33333333 4.66666667 4.66666667 9.33333333 7 14 C4.525 13.01 4.525 13.01 2 12 C2 10.68 2 9.36 2 8 C1.34 8 0.68 8 0 8 C0 5.36 0 2.72 0 0 Z " fill="#4F2823" transform="translate(635,622)"/>
<path d="M0 0 C0 3 0 3 -1 5 C-1.99 5 -2.98 5 -4 5 C-4 5.66 -4 6.32 -4 7 C-6.64 7 -9.28 7 -12 7 C-9.62905601 5.41937067 -7.4213606 4.17309564 -4.875 2.9375 C-2.24526174 1.74120952 -2.24526174 1.74120952 0 0 Z " fill="#4F430D" transform="translate(227,290)"/>
<path d="M0 0 C0.66 0.99 1.32 1.98 2 3 C1.25 5.375 1.25 5.375 0 8 C-0.37125 8.928125 -0.7425 9.85625 -1.125 10.8125 C-1.41375 11.534375 -1.7025 12.25625 -2 13 C-2.33 13 -2.66 13 -3 13 C-3 11.02 -3 9.04 -3 7 C-2.34 7 -1.68 7 -1 7 C-1.020625 6.030625 -1.04125 5.06125 -1.0625 4.0625 C-1 1 -1 1 0 0 Z " fill="#43380E" transform="translate(1060,921)"/>
<path d="M0 0 C1.94806149 2.92209224 3.45695045 5.84960716 5 9 C5.391875 9.78375 5.78375 10.5675 6.1875 11.375 C6.455625 11.91125 6.72375 12.4475 7 13 C6.34 13 5.68 13 5 13 C5 12.34 5 11.68 5 11 C4.01 11 3.02 11 2 11 C0.80712589 7.12315913 0 4.08378077 0 0 Z " fill="#5C4E0C" transform="translate(181,275)"/>
<path d="M0 0 C3.465 1.98 3.465 1.98 7 4 C7 4.33 7 4.66 7 5 C5.35 5 3.7 5 2 5 C1.34 3.35 0.68 1.7 0 0 Z " fill="#53460D" transform="translate(190,290)"/>
</svg>
