<?xml version="1.0" encoding="UTF-8"?>
<svg version="1.1" xmlns="http://www.w3.org/2000/svg" width="28" height="28">
<path d="M0 0 C4.38253554 2.19126777 7.16669816 4.41674539 9 9 C9.71062194 13.73747957 9.47089401 17.05821199 7.3125 21.375 C4.40542645 24.67492133 2.34201838 26.64869724 -2.109375 27.31640625 C-7.55267135 27.59953072 -10.79364195 26.70560114 -15 23 C-18.16205748 19.31093294 -18.52383784 15.92109268 -18.3515625 11.21484375 C-17.63443905 6.69696599 -15.18268822 4.01373276 -11.8125 1.125 C-7.79880044 -0.48047982 -4.26304489 -0.67667379 0 0 Z " fill="#F8C800" transform="translate(19,1)"/>
<path d="M0 0 C4.38253554 2.19126777 7.16669816 4.41674539 9 9 C9.71062194 13.73747957 9.47089401 17.05821199 7.3125 21.375 C4.40542645 24.67492133 2.34201838 26.64869724 -2.109375 27.31640625 C-7.55267135 27.59953072 -10.79364195 26.70560114 -15 23 C-18.16205748 19.31093294 -18.52383784 15.92109268 -18.3515625 11.21484375 C-17.63443905 6.69696599 -15.18268822 4.01373276 -11.8125 1.125 C-7.79880044 -0.48047982 -4.26304489 -0.67667379 0 0 Z M-14 6 C-16.47241989 9.70862983 -16.66668695 12.69905615 -16 17 C-14.39076503 20.10352458 -12.99652733 22.21701424 -10.25 24.375 C-6.79994008 25.33334998 -3.51785566 25.58048115 0 25 C3.27981751 22.93228896 4.84746007 21.22880989 7 18 C7.72517392 13.49717589 7.60000036 10.00714346 5.25 6.0625 C1.26671072 2.41115149 -1.48774084 1.54148628 -7.03515625 1.67578125 C-10.16557549 2.19233154 -11.83548354 3.77182129 -14 6 Z " fill="#0F0F12" transform="translate(19,1)"/>
<path d="M0 0 C0.33 0 0.66 0 1 0 C1.38909985 1.45463481 1.76088029 2.91391207 2.125 4.375 C2.33382813 5.18710937 2.54265625 5.99921875 2.7578125 6.8359375 C2.83773438 7.55007812 2.91765625 8.26421875 3 9 C2.34 9.66 1.68 10.32 1 11 C-0.62950412 6.87831311 -1.26264601 4.29299643 0 0 Z " fill="#1C1A11" transform="translate(2,12)"/>
</svg>
