<?xml version="1.0" encoding="UTF-8"?>
<svg version="1.1" xmlns="http://www.w3.org/2000/svg" width="71" height="71">
<path d="M0 0 C0.63164063 0.41378906 1.26328125 0.82757813 1.9140625 1.25390625 C2.60757813 1.67800781 3.30109375 2.10210938 4.015625 2.5390625 C11.11942272 7.31483663 15.71834956 13.99004118 17.9140625 22.25390625 C18.91915031 34.08121856 18.38886733 44.02088083 10.6640625 53.56640625 C4.78985615 59.79281341 -2.38335079 64.10570153 -11.07421875 64.58984375 C-19.14445223 64.75841743 -26.11976248 64.81746173 -33.0859375 60.25390625 C-33.77945313 59.82980469 -34.47296875 59.40570313 -35.1875 58.96875 C-42.289971 54.19386781 -46.89297056 47.51740438 -49.0859375 39.25390625 C-50.11080666 30.24920955 -50.17606984 21.0238902 -45.0859375 13.25390625 C-44.66183594 12.56039063 -44.23773438 11.866875 -43.80078125 11.15234375 C-34.73470109 -2.33313481 -14.62163812 -8.10117788 0 0 Z " fill="#F46132" transform="translate(51.0859375,4.74609375)"/>
<path d="M0 0 C0.63164063 0.41378906 1.26328125 0.82757813 1.9140625 1.25390625 C2.60757813 1.67800781 3.30109375 2.10210938 4.015625 2.5390625 C11.11942272 7.31483663 15.71834956 13.99004118 17.9140625 22.25390625 C18.91915031 34.08121856 18.38886733 44.02088083 10.6640625 53.56640625 C4.78985615 59.79281341 -2.38335079 64.10570153 -11.07421875 64.58984375 C-19.14445223 64.75841743 -26.11976248 64.81746173 -33.0859375 60.25390625 C-33.77945313 59.82980469 -34.47296875 59.40570313 -35.1875 58.96875 C-42.289971 54.19386781 -46.89297056 47.51740438 -49.0859375 39.25390625 C-50.11080666 30.24920955 -50.17606984 21.0238902 -45.0859375 13.25390625 C-44.66183594 12.56039063 -44.23773438 11.866875 -43.80078125 11.15234375 C-34.73470109 -2.33313481 -14.62163812 -8.10117788 0 0 Z M-43.0859375 12.25390625 C-48.29413177 20.64662895 -49.57195023 29.49523388 -47.4375 39.203125 C-44.27679642 48.88784495 -37.94131145 55.9602584 -29.0859375 60.94140625 C-20.72918772 64.59748428 -11.29990069 64.45068829 -2.8359375 61.25390625 C6.7966665 56.75869105 11.91259722 49.92268288 15.9140625 40.25390625 C18.53202746 32.40001137 17.35395742 23.6674729 13.9140625 16.25390625 C9.17613062 7.7933136 3.15501598 2.561808 -5.8984375 -0.8671875 C-20.51506619 -4.89750791 -33.65634332 0.92466082 -43.0859375 12.25390625 Z " fill="#0E0502" transform="translate(51.0859375,4.74609375)"/>
<path d="M0 0 C-1.39332574 3.36720387 -2.9789286 4.9859524 -6 7 C-5.37162381 3.35541809 -4.14650034 0 0 0 Z " fill="#190A05" transform="translate(15,9)"/>
</svg>
