<?xml version="1.0" encoding="UTF-8"?>
<svg version="1.1" xmlns="http://www.w3.org/2000/svg" width="871" height="1238">
<path d="M0 0 C4.9412272 0.21157188 7.27021381 1.65861519 10.75 5.0625 C15.63273314 9.67679165 20.72658923 13.84408487 26 18 C27.17023202 18.93760367 28.33943739 19.87648964 29.5078125 20.81640625 C36.56043739 26.48875133 43.65669148 32.09389211 50.84765625 37.58984375 C53.92783614 39.94482639 56.99523102 42.31573914 60.0625 44.6875 C79.6338968 59.75798906 99.59859334 74.27083492 119.81494141 88.4609375 C122.01115454 90.00785678 124.19943788 91.56548273 126.38671875 93.125 C200.23119938 145.56391872 280.70760886 193.46988423 602 244 C601.98630371 242.74896484 601.97260742 241.49792969 601.95849609 240.20898438 C601.84015529 229.39959648 606.56181704 220.69602785 613.8125 213.1015625 C622.02033786 205.25778196 631.95798534 202.65044942 643.09375 202.78515625 C653.4842404 203.55327046 662.09138054 208.32375616 669 216 C669.680625 216.7425 670.36125 217.485 671.0625 218.25 C674.65819896 223.35357272 676.69475668 229.23031895 679 235 C733.40545047 227.06880239 787.71596505 217.21648342 840.9765625 203.4609375 C841.73885162 203.26503525 842.50114075 203.069133 843.28652954 202.86729431 C846.75830033 201.97226511 850.2234168 201.06003859 853.68017578 200.10864258 C854.85306152 199.79822021 856.02594727 199.48779785 857.234375 199.16796875 C858.23694336 198.89235107 859.23951172 198.6167334 860.27246094 198.33276367 C863.49503813 197.93960464 865.16454739 198.47024884 868 200 C869.0625 201.875 869.0625 201.875 869 204 C865.92063964 207.95503534 862.53201971 209.04364795 857.828125 210.15625 C857.09951263 210.33978531 856.37090027 210.52332062 855.62020874 210.7124176 C853.16710687 211.32424808 850.70917703 211.91309564 848.25 212.5 C846.47962901 212.93145282 844.7092847 213.36301515 842.93896484 213.79467773 C713.76937575 245 713.76937575 245 678 245 C677.90203125 245.6290625 677.8040625 246.258125 677.703125 246.90625 C675.74018493 258.14238972 671.12662173 266.5358758 661.75 273.25 C652.06502842 279.27692075 641.10884039 280.83303288 629.94140625 278.30859375 C620.44904913 275.16202877 612.71178969 269.2278692 607 261 C605.90108243 258.6960582 604.95051851 256.37201466 604 254 C603.13648926 254.05534912 602.27297852 254.11069824 601.38330078 254.16772461 C516.48050159 259.56899497 435.0414494 258.1593846 241.42578125 177.1015625 C237.22033671 174.68337615 232.97905353 172.34583329 228.70898438 170.04418945 C179.95231989 143.71380249 133.68938813 111.65081507 89 79 C88.23236328 78.44103027 87.46472656 77.88206055 86.67382812 77.30615234 C75.62908378 69.25855411 64.77009018 61.0033387 54.01464844 52.57373047 C51.10668096 50.30218922 48.17924658 48.05648477 45.25 45.8125 C34.71332108 37.71242808 24.28503686 29.50731254 14.07348633 20.99902344 C10.99780491 18.44027221 7.92788643 15.90718992 4.69921875 13.54296875 C3.78785156 12.86878906 2.87648438 12.19460938 1.9375 11.5 C1.16277344 10.9534375 0.38804687 10.406875 -0.41015625 9.84375 C-2 8 -2 8 -2.37109375 4.90625 C-2 2 -2 2 0 0 Z " fill="#121211" transform="translate(2,729)"/>
<path d="M0 0 C0.60972656 0.391875 1.21945313 0.78375 1.84765625 1.1875 C2.77771484 1.7134375 2.77771484 1.7134375 3.7265625 2.25 C10.4826762 6.45250701 14.38142449 12.9761426 16.78515625 20.4375 C19.12415122 30.54026744 17.64818455 39.49303463 12.64453125 48.5234375 C7.9719254 55.45108356 1.7260283 59.55592759 -6.15234375 62.1875 C-6.81234375 62.1875 -7.47234375 62.1875 -8.15234375 62.1875 C-4.75795211 159.82151823 1.7083754 256.88240785 134.84765625 592.1875 C135.3360498 592.77499023 135.82444336 593.36248047 136.32763672 593.96777344 C141.69645303 600.40602477 147.17430198 606.732499 152.8125 612.9375 C154.62143168 614.93739375 156.39657426 616.96019432 158.16015625 619 C165.14141627 627.00409579 172.35787716 634.80375322 179.93701172 642.24438477 C181.68835421 644.02549068 183.31059735 645.85380407 184.92578125 647.7578125 C189.47556871 652.99058092 194.37350707 657.85929602 199.28515625 662.75 C200.18814453 663.65685547 201.09113281 664.56371094 202.02148438 665.49804688 C206.58264351 670.05260042 211.20246515 674.45485215 216.09399414 678.65209961 C218.64129579 680.88236274 220.98204604 683.26488713 223.34765625 685.6875 C226.93687244 689.32523571 230.60095098 692.79619984 234.48828125 696.11328125 C237.84447585 699.06384306 241.0894782 702.12950746 244.34765625 705.1875 C249.43463653 709.95294998 254.54349717 714.66336431 259.84765625 719.1875 C260.86868435 720.06227272 261.88949696 720.93729699 262.91015625 721.8125 C264.67971505 723.32958897 266.44961922 724.84626383 268.22070312 726.36157227 C272.63369177 730.13888041 277.02513652 733.94028761 281.41015625 737.75 C290.90217232 745.98227319 300.41256407 754.13675834 310.33398438 761.84985352 C315.09789506 765.56494393 319.76031922 769.39348041 324.41015625 773.25 C330.87849813 778.60519878 337.42887098 783.80687753 344.12402344 788.87744141 C346.00926336 790.31033056 347.8859756 791.75392176 349.76171875 793.19921875 C358.28888408 799.76088497 366.8870694 806.21031557 375.60400391 812.51855469 C383.41047119 818.21018204 383.41047119 818.21018204 385.84765625 821.1875 C385.54765625 825.4875 385.54765625 825.4875 383.84765625 827.1875 C376.58996739 827.23569183 372.37453941 823.26840606 366.91015625 818.875 C365.03563919 817.40563369 363.16063465 815.93688907 361.28515625 814.46875 C360.36347656 813.74042969 359.44179688 813.01210938 358.4921875 812.26171875 C354.84542825 809.4014098 351.13295666 806.63506303 347.41015625 803.875 C335.88490959 795.26453097 324.67832376 786.27600756 313.53125 777.18359375 C310.59162217 774.78753947 307.63235616 772.4181009 304.66015625 770.0625 C300.27502491 766.56763861 295.99890223 762.95334807 291.72924805 759.31933594 C288.3435899 756.44100579 284.92635788 753.60933119 281.47265625 750.8125 C271.7442085 742.88772067 262.32709141 734.58203729 253.03125 726.15625 C251.0302764 724.35215216 249.00815315 722.57742983 246.97265625 720.8125 C243.05970037 717.40444165 239.23850226 713.89894721 235.42163086 710.38427734 C232.15054516 707.37394906 228.85281472 704.39662917 225.53515625 701.4375 C222.1250345 698.38089964 218.85953538 695.23326527 215.65562439 691.96302795 C213.89214192 690.23118747 212.06972777 688.62503189 210.18969727 687.02124023 C205.59909474 683.02668331 201.29585815 678.77983775 197 674.47265625 C196.18447159 673.65808456 195.36894318 672.84351288 194.52870178 672.0042572 C192.81567617 670.29190807 191.1038966 668.57831158 189.39331055 666.86352539 C186.79262073 664.25747985 184.18663669 661.65681478 181.58007812 659.05664062 C179.90723139 657.38313301 178.23469491 655.70931518 176.5625 654.03515625 C175.79252182 653.2672023 175.02254364 652.49924835 174.22923279 651.70802307 C170.10261939 647.56369852 166.14529037 643.33168153 162.32759094 638.90101624 C160.66899299 636.9806379 158.95368301 635.12597927 157.19921875 633.29296875 C156.59102295 632.65319092 155.98282715 632.01341309 155.35620117 631.35424805 C154.73463135 630.70109619 154.11306152 630.04794434 153.47265625 629.375 C148.39158102 623.99983924 143.56540861 618.55208379 138.95703125 612.765625 C136.65931321 609.95730295 134.24430477 607.29280355 131.78515625 604.625 C127.22302134 599.65066607 122.99302975 594.51125379 118.84765625 589.1875 C117.7972114 587.85520345 116.74639907 586.52319659 115.6953125 585.19140625 C107.46190508 574.72367989 99.49922911 564.08830072 91.84765625 553.1875 C91.4206543 552.57938477 90.99365234 551.97126953 90.55371094 551.34472656 C45.90851235 487.23235369 23.47922237 413.35667566 8.31323242 337.51348877 C7.88237258 335.36094058 7.44664174 333.20943895 7.00976562 331.05810547 C-10.46535694 244.00323856 -18.74088502 151.96930667 -17.15234375 63.1875 C-17.88477295 63.0743042 -18.61720215 62.9611084 -19.37182617 62.84448242 C-29.02481644 61.24351037 -36.77849886 58.04984364 -42.90625 50.08203125 C-48.42690957 41.68855197 -50.34569275 32.71756501 -48.5234375 22.74609375 C-45.68875857 12.51041209 -41.37791688 6.17437533 -32.49609375 0.4140625 C-23.19232931 -4.45490756 -9.35126898 -5.18914348 0 0 Z " fill="#121212" transform="translate(143.15234375,12.8125)"/>
<path d="M0 0 C9.02801374 7.4669197 16.10678434 16.44928452 17.75 28.3125 C18.7915539 40.17990199 16.65761617 51.52066505 9.49609375 61.25390625 C2.37895597 69.64480471 -6.29259367 75.25408781 -17.25 77.3125 C-31.46250943 78.24329407 -42.35289574 75.55795268 -53.48046875 66.49609375 C-61.11077289 59.40978878 -65.99572829 49.79380861 -66.5859375 39.296875 C-66.88712648 25.31450394 -63.87397056 14.94343832 -54.25 4.3125 C-39.21903835 -8.57790217 -16.80412784 -11.69124398 0 0 Z " fill="#F56135" transform="translate(140.25,527.6875)"/>
<path d="M0 0 C7.20732537 6.11656157 10.65705906 13.75803302 11.9140625 22.98046875 C12.48973383 31.81151196 10.53158065 40.08887316 4.76953125 46.91796875 C-2.99901835 55.05477917 -9.66517235 59.04916548 -21.03125 59.7890625 C-30.07586691 59.60817016 -38.16447433 56.71782916 -44.9609375 50.73046875 C-52.00485042 43.13045744 -55.34351451 34.53736268 -55.171875 24.1875 C-54.40446685 15.24861621 -50.62620567 7.07334034 -44.0390625 0.94140625 C-30.51360647 -9.70071613 -14.02211052 -10.03348898 0 0 Z " fill="#FAF8F6" transform="translate(644.9609375,654.26953125)"/>
<path d="M0 0 C8.61919454 9.22053369 11.03643038 17.00006942 10.89453125 29.37109375 C10.3728967 38.19951238 6.83716466 44.5712975 0.6875 50.875 C-8.17130888 58.0853001 -16.99621568 59.99359926 -28.30566406 59.15625 C-36.38004179 58.02465838 -43.28639467 52.88183655 -48.69140625 47.02734375 C-55.0728289 38.5546597 -56.1243495 29.20220321 -55.3125 18.875 C-53.38973126 9.81979856 -47.38255216 2.40621843 -39.8671875 -2.828125 C-26.57865144 -10.45916551 -12.54955397 -8.05065727 0 0 Z " fill="#BFFD00" transform="translate(664.3125,944.125)"/>
<path d="M0 0 C1.54220844 0.90190542 3.06599396 1.83663631 4.5625 2.8125 C5.635 3.493125 6.7075 4.17375 7.8125 4.875 C12.94025234 9.57788144 16.03557006 16.38346348 17.078125 23.16796875 C17.41458931 33.41811354 14.40820935 40.61196962 7.5 48.0859375 C0.72413198 54.12411021 -6.98685867 55.24429151 -15.79296875 55.14453125 C-23.51648413 54.44088837 -28.60538599 51.02783466 -33.875 45.5 C-39.7331369 38.29271643 -41.03195209 32.27776347 -40.78515625 22.99609375 C-40.27416609 18.31680187 -38.91956875 14.78537104 -36.4375 10.8125 C-36.04820313 10.18730469 -35.65890625 9.56210937 -35.2578125 8.91796875 C-27.15987067 -2.07894043 -12.24230352 -5.76324333 0 0 Z " fill="#F46137" transform="translate(139.4375,16.1875)"/>
<path d="M0 0 C9.02801374 7.4669197 16.10678434 16.44928452 17.75 28.3125 C18.7915539 40.17990199 16.65761617 51.52066505 9.49609375 61.25390625 C2.37895597 69.64480471 -6.29259367 75.25408781 -17.25 77.3125 C-31.46250943 78.24329407 -42.35289574 75.55795268 -53.48046875 66.49609375 C-61.11077289 59.40978878 -65.99572829 49.79380861 -66.5859375 39.296875 C-66.88712648 25.31450394 -63.87397056 14.94343832 -54.25 4.3125 C-39.21903835 -8.57790217 -16.80412784 -11.69124398 0 0 Z M-53.5 10.5625 C-61.23410119 20.23551236 -63.35622714 30.14400149 -62.25 42.3125 C-59.06112885 54.28149171 -52.41675073 62.50475608 -41.99609375 68.90234375 C-36.35012567 71.80162466 -31.31112437 72.70160465 -25 72.6875 C-23.87501099 72.68508301 -23.87501099 72.68508301 -22.72729492 72.68261719 C-16.57489005 72.54718063 -11.65578715 71.34398064 -6.25 68.3125 C-5.239375 67.77625 -4.22875 67.24 -3.1875 66.6875 C5.22357989 59.88705243 11.76921489 52.39202321 12.96435547 41.328125 C13.84314128 29.32626525 12.1553386 19.71424923 4.44140625 10.125 C-1.96875502 3.25591264 -10.77801738 -1.91427693 -20.25 -2.6875 C-20.97703125 -2.75066406 -21.7040625 -2.81382812 -22.453125 -2.87890625 C-34.26744838 -3.45476163 -45.51690998 1.92938738 -53.5 10.5625 Z " fill="#1F1615" transform="translate(140.25,527.6875)"/>
<path d="M0 0 C7.20732537 6.11656157 10.65705906 13.75803302 11.9140625 22.98046875 C12.48973383 31.81151196 10.53158065 40.08887316 4.76953125 46.91796875 C-2.99901835 55.05477917 -9.66517235 59.04916548 -21.03125 59.7890625 C-30.07586691 59.60817016 -38.16447433 56.71782916 -44.9609375 50.73046875 C-52.00485042 43.13045744 -55.34351451 34.53736268 -55.171875 24.1875 C-54.40446685 15.24861621 -50.62620567 7.07334034 -44.0390625 0.94140625 C-30.51360647 -9.70071613 -14.02211052 -10.03348898 0 0 Z M-44.78125 8.83203125 C-49.46496245 16.36939632 -51.11419531 22.79563297 -49.9609375 31.73046875 C-47.34124802 41.69089237 -42.12712414 47.38637459 -33.36328125 52.53125 C-26.01514555 56.19934375 -17.97960478 55.30182118 -10.3828125 52.765625 C-1.83399894 49.11169662 2.52536215 43.1169695 6.3515625 34.91796875 C8.44281479 25.22216268 6.92772601 17.22015884 1.859375 8.76171875 C-2.93102116 2.29893576 -10.39724891 -1.45125255 -18.20703125 -2.8515625 C-28.45228669 -3.38042923 -38.5521846 0.39146334 -44.78125 8.83203125 Z " fill="#151515" transform="translate(644.9609375,654.26953125)"/>
<path d="M0 0 C0 0.33 0 0.66 0 1 C-0.75023437 1.01417969 -1.50046875 1.02835938 -2.2734375 1.04296875 C-12.76568081 1.531902 -20.15011379 4.53635681 -27.52734375 12.05859375 C-31.7933656 17.68250054 -32.49682485 22.54338162 -32.6875 29.375 C-32.72166016 30.20644531 -32.75582031 31.03789063 -32.79101562 31.89453125 C-32.87287146 33.92923351 -32.93812701 35.96459208 -33 38 C-36.27250762 33.09123857 -35.5336081 27.73628712 -35 22 C-34.11895429 18.65603104 -32.82830752 15.92644191 -31 13 C-30.61070313 12.37480469 -30.22140625 11.74960937 -29.8203125 11.10546875 C-22.55055328 1.23322176 -11.58996594 -1.00944865 0 0 Z " fill="#C55772" transform="translate(134,14)"/>
<path d="M0 0 C0 0.66 0 1.32 0 2 C-1.32 2 -2.64 2 -4 2 C-4 2.66 -4 3.32 -4 4 C-4.99 4 -5.98 4 -7 4 C-7 4.66 -7 5.32 -7 6 C-7.66 6 -8.32 6 -9 6 C-9 6.66 -9 7.32 -9 8 C-10.609375 9.65625 -10.609375 9.65625 -12.75 11.5 C-13.44609375 12.1084375 -14.1421875 12.716875 -14.859375 13.34375 C-16.84460792 14.87976963 -18.71872045 15.9723966 -21 17 C-21 17.66 -21 18.32 -21 19 C-21.66 19 -22.32 19 -23 19 C-21.19538642 12.58359616 -16.65823476 7.75361931 -11.19921875 4.15234375 C-3.78782506 0 -3.78782506 0 0 0 Z " fill="#DF5E5C" transform="translate(106,527)"/>
<path d="M0 0 C2 1 2 1 3.125 4.0625 C3.41375 5.031875 3.7025 6.00125 4 7 C4.66 7 5.32 7 6 7 C6 8.32 6 9.64 6 11 C6.66 11 7.32 11 8 11 C9.1484375 12.57421875 9.1484375 12.57421875 10.375 14.6875 C12.36542537 18.0127507 14.49508648 21.0312136 17 24 C8.55572346 20.2469882 4.49098503 13.5695446 0.82421875 5.37109375 C0 3 0 3 0 0 Z " fill="#DC5D5C" transform="translate(79,570)"/>
<path d="M0 0 C0 0.99 0 1.98 0 3 C-0.99 3 -1.98 3 -3 3 C-3 3.66 -3 4.32 -3 5 C-4.98 5 -6.96 5 -9 5 C-9 5.66 -9 6.32 -9 7 C-17.25 7 -25.5 7 -34 7 C-34 6.34 -34 5.68 -34 5 C-33.44650879 5.02094727 -32.89301758 5.04189453 -32.32275391 5.06347656 C-17.63805416 5.78765947 -17.63805416 5.78765947 -4 1 C-2 0 -2 0 0 0 Z " fill="#4E2822" transform="translate(138,594)"/>
<path d="M0 0 C0.66 0 1.32 0 2 0 C0.98131139 8.40418107 -4.58126 14.85999336 -11 20 C-13.25 20.7265625 -13.25 20.7265625 -15 21 C-12.03132168 17.44179691 -9.05525603 14.00085982 -5.6875 10.8125 C-3.11751642 8.1229823 -2.62088307 7.41120463 -2 4 C-1.34 4 -0.68 4 0 4 C0 2.68 0 1.36 0 0 Z " fill="#D65C6B" transform="translate(149,574)"/>
<path d="M0 0 C0.99 0 1.98 0 3 0 C6.81400972 6.42675653 7.52964107 11.10026703 7.25 18.5 C7.23195312 19.4178125 7.21390625 20.335625 7.1953125 21.28125 C7.14863102 23.52196092 7.08318522 25.76039799 7 28 C6.34 28 5.68 28 5 28 C5.05800781 26.96101563 5.11601562 25.92203125 5.17578125 24.8515625 C5.48308492 16.84822252 5.39865065 10.87556634 1.09375 3.8203125 C0 2 0 2 0 0 Z " fill="#4E271D" transform="translate(150,24)"/>
<path d="M0 0 C3.85523273 0.56634392 6.45707633 1.64608684 9.6875 3.8125 C10.45449219 4.31394531 11.22148437 4.81539062 12.01171875 5.33203125 C14.10479071 7.08790891 14.98253798 8.49171127 16 11 C14.2421875 9.99088542 12.484375 8.98177083 10.7265625 7.97265625 C9.50201525 7.28280949 8.25710923 6.62855462 7 6 C7 5.34 7 4.68 7 4 C6.030625 3.71125 5.06125 3.4225 4.0625 3.125 C1 2 1 2 0 0 Z " fill="#D45B61" transform="translate(134,15)"/>
<path d="M0 0 C5.1877847 2.9644484 9.61093518 6.00558868 13 11 C12.67 11.66 12.34 12.32 12 13 C11.44570312 12.43410156 10.89140625 11.86820313 10.3203125 11.28515625 C9.59585938 10.55167969 8.87140625 9.81820312 8.125 9.0625 C7.40570313 8.33160156 6.68640625 7.60070312 5.9453125 6.84765625 C4.12972808 4.94332001 4.12972808 4.94332001 2 4 C2 3.34 2 2.68 2 2 C1.34 2 0.68 2 0 2 C0 1.34 0 0.68 0 0 Z " fill="#C7587A" transform="translate(134,530)"/>
<path d="M0 0 C2 0 2 0 3.62109375 1.609375 C4.22050781 2.31578125 4.81992188 3.0221875 5.4375 3.75 C6.33275391 4.79414062 6.33275391 4.79414062 7.24609375 5.859375 C8.89081098 7.86673589 10.46126108 9.91070312 12 12 C5.96812559 9.31916693 2.62617971 6.08167932 0 0 Z " fill="#C4587C" transform="translate(84,582)"/>
<path d="M0 0 C0.33 1.32 0.66 2.64 1 4 C0.01 4.66 -0.98 5.32 -2 6 C-2.33 6.99 -2.66 7.98 -3 9 C-4.98 9.33 -6.96 9.66 -9 10 C-8.2575 9.278125 -7.515 8.55625 -6.75 7.8125 C-4.30709485 5.31407427 -2.1318953 2.76356798 0 0 Z " fill="#612E20" transform="translate(151,58)"/>
<path d="M0 0 C0.33 1.32 0.66 2.64 1 4 C-0.9375 6.25 -0.9375 6.25 -3 8 C-3.99 7.67 -4.98 7.34 -6 7 C-4.02 4.69 -2.04 2.38 0 0 Z " fill="#49251F" transform="translate(148,582)"/>
<path d="M0 0 C-1.29299694 2.88437779 -2.65941363 4.87219421 -5 7 C-5.99 6.67 -6.98 6.34 -8 6 C-7.0479279 4.99403703 -6.08812654 3.99538437 -5.125 3 C-4.59132813 2.443125 -4.05765625 1.88625 -3.5078125 1.3125 C-2 0 -2 0 0 0 Z " fill="#BC5681" transform="translate(94,533)"/>
<path d="M0 0 C5 2 5 2 10 4 C10 4.33 10 4.66 10 5 C6.05272412 5.17942163 3.4019487 5.09350689 0 3 C0 2.01 0 1.02 0 0 Z " fill="#4A251B" transform="translate(110,66)"/>
<path d="M0 0 C6.75 0.75 6.75 0.75 9 3 C8.67 3.99 8.34 4.98 8 6 C6.66402348 5.19185349 5.331275 4.37836819 4 3.5625 C3.2575 3.11003906 2.515 2.65757813 1.75 2.19140625 C1.1725 1.79824219 0.595 1.40507812 0 1 C0 0.67 0 0.34 0 0 Z " fill="#542920" transform="translate(139,16)"/>
<path d="M0 0 C0.33 0 0.66 0 1 0 C1 1.98 1 3.96 1 6 C0.34 6 -0.32 6 -1 6 C-1.66 7.32 -2.32 8.64 -3 10 C-2.25 3.375 -2.25 3.375 0 0 Z " fill="#CC585E" transform="translate(82,546)"/>
<path d="M0 0 C2.31 0.33 4.62 0.66 7 1 C7.66 2.65 8.32 4.3 9 6 C6.03 4.35 3.06 2.7 0 1 C0 0.67 0 0.34 0 0 Z " fill="#51281F" transform="translate(131,528)"/>
</svg>
