<?xml version="1.0" encoding="UTF-8"?>
<svg version="1.1" xmlns="http://www.w3.org/2000/svg" width="209" height="297">
<path d="M0 0 C-9.26544343 23.21625313 -59.7389424 45.0865393 -80.65576172 54.15087891 C-100.83813133 62.23449006 -124.58144436 64.7093588 -146 61 C-146.268125 61.61875 -146.53625 62.2375 -146.8125 62.875 C-148 65 -148 65 -151 67 C-155.17262337 67.46362482 -157.28714371 67.4494094 -160.875 65.1875 C-163 63 -163 63 -164 60 C-164.99459229 59.80422363 -164.99459229 59.80422363 -166.00927734 59.60449219 C-188.39830838 55.18779268 -188.39830838 55.18779268 -199.4375 52.75 C-200.55294189 52.50588379 -200.55294189 52.50588379 -201.69091797 52.25683594 C-206.7515121 51.12424395 -206.7515121 51.12424395 -209 50 C-209 49.01 -209 48.02 -209 47 C-199.23847226 48.713022 -189.52794852 50.67145191 -179.8125 52.625 C-178.17645041 52.95321532 -176.54038283 53.28134099 -174.90429688 53.609375 C-170.93598997 54.40521754 -166.9679278 55.20226956 -163 56 C-162.81824219 55.08154297 -162.81824219 55.08154297 -162.6328125 54.14453125 C-161.64600038 50.80033463 -159.95781701 49.73610999 -157 48 C-152.53446105 47.92025823 -150.5820309 48.54180546 -147.0625 51.3125 C-145 54 -145 54 -145 58 C-113.61459591 58.58364999 -88.95913071 55.10605609 -61 40 C-59.85402344 39.38511719 -58.70804688 38.77023438 -57.52734375 38.13671875 C-38.82230067 27.76411736 -21.23076813 15.14206182 -4.91796875 1.328125 C-3 0 -3 0 0 0 Z " fill="#131312" transform="translate(209,175)"/>
<path d="M0 0 C3.73785618 0.70084803 5.39432914 1.80793366 8 4.5625 C9.42700061 7.95162645 9.08650587 9.31259416 7.875 12.8125 C6 15.5625 6 15.5625 3.3828125 16.234375 C2.20332031 16.39679687 2.20332031 16.39679687 1 16.5625 C1.02320313 17.42746094 1.04640625 18.29242187 1.0703125 19.18359375 C1.84683946 73.37408204 -9.08889515 121.19046626 -47 160.5625 C-47.50176758 161.08618164 -48.00353516 161.60986328 -48.52050781 162.14941406 C-54.51069747 168.37073644 -60.65849903 174.1145163 -67.43359375 179.4921875 C-69.79464212 181.3968384 -72.02214881 183.38038134 -74.25 185.4375 C-78.29226348 189.07480083 -82.56755085 192.33420265 -86.9375 195.5625 C-87.60104492 196.0560498 -88.26458984 196.54959961 -88.94824219 197.05810547 C-93.75391455 200.5625 -93.75391455 200.5625 -96 200.5625 C-95.74810077 197.32485395 -94.92787681 196.49864782 -92.4453125 194.30078125 C-91.3455664 193.48265898 -90.23827751 192.67461161 -89.125 191.875 C-87.93000814 190.98569228 -86.73601302 190.0950438 -85.54296875 189.203125 C-84.94403809 188.75904297 -84.34510742 188.31496094 -83.72802734 187.85742188 C-76.05371297 182.10656522 -68.92072891 175.7692862 -61.90625 169.24609375 C-59.28617572 166.82675097 -56.62111223 164.4731607 -53.9375 162.125 C-32.39794503 142.72216888 -17.72641412 119.59281586 -10.8125 91.375 C-10.45551025 89.92613403 -10.45551025 89.92613403 -10.09130859 88.44799805 C-6.08751888 71.26144312 -4.43996665 53.88563999 -3.3125 36.3125 C-3.18238853 34.38015783 -3.05153212 32.44786567 -2.91992188 30.515625 C-2.6047437 25.86511139 -2.29946844 21.21405053 -2 16.5625 C-2.61875 16.294375 -3.2375 16.02625 -3.875 15.75 C-6 14.5625 -6 14.5625 -8 11.5625 C-8.4375 8.6875 -8.4375 8.6875 -8 5.5625 C-5.53959272 2.23371368 -4.10389613 0.76948052 0 0 Z " fill="#131311" transform="translate(178,1.4375)"/>
<path d="M0 0 C4.37758112 2.34513274 4.37758112 2.34513274 6 5 C7.14666551 10.03212922 6.78501403 13.73384833 4.0625 18.125 C-0.09060568 20.66771776 -3.25429397 21.00742181 -8 20 C-11.04834094 18.69978927 -11.81120257 17.75002754 -14 15 C-14.73461067 11.85085505 -14.68593323 9.15529286 -14 6 C-10.40061871 0.24098994 -6.67055043 -1.03764118 0 0 Z " fill="#C24F2E" transform="translate(185,125)"/>
<path d="M0 0 C3.73785618 0.70084803 5.39432914 1.80793366 8 4.5625 C9.39467793 7.87486007 9.08093447 9.30452139 8 12.75 C6 15.5625 6 15.5625 2.625 17.125 C-1 17.5625 -1 17.5625 -3.8125 16.375 C-6.64610146 14.02715879 -7.8799853 12.35116804 -8.4375 8.6875 C-8 5.5625 -8 5.5625 -5.875 2.6875 C-3 0.5625 -3 0.5625 0 0 Z " fill="#B0AFAD" transform="translate(59,154.4375)"/>
<path d="M0 0 C3 2.0625 3 2.0625 5 5 C5.1506132 9.29247606 4.66257079 11.22050496 1.875 14.5 C-1.93532871 16.48799759 -3.91964404 16.20899436 -8 15 C-10.81972931 12.63506574 -10.97850831 11.1719335 -11.4375 7.5 C-11 4 -11 4 -9.4375 1.5625 C-6.01685857 -0.63021887 -3.99048721 -0.63007693 0 0 Z " fill="#BAF500" transform="translate(58,225)"/>
<path d="M0 0 C2.54685809 0.0785782 3.81954973 0.17584047 6.0625 1.4375 C7.566606 4.25769875 7.51162849 6.16860056 7.0625 9.3125 C5.4375 11.6875 5.4375 11.6875 3.0625 13.3125 C-0.08139944 13.76162849 -1.99230125 13.816606 -4.8125 12.3125 C-6.69071874 8.97344446 -6.23829454 6.10251126 -5.9375 2.3125 C-3.9375 0.3125 -3.9375 0.3125 0 0 Z " fill="#BAF600" transform="translate(177.9375,3.6875)"/>
<path d="M0 0 C1.875 1.125 1.875 1.125 3 3 C3.42478586 7.07794425 3.31282587 8.53076119 1 12 C-1.8125 13 -1.8125 13 -5 13 C-7.9375 10.9375 -7.9375 10.9375 -10 8 C-10 4.8125 -10 4.8125 -9 2 C-5.53076119 -0.31282587 -4.07794425 -0.42478586 0 0 Z " fill="#EFEDEB" transform="translate(204,237)"/>
<path d="M0 0 C1.875 1.125 1.875 1.125 3 3 C3.42478586 7.07794425 3.31282587 8.53076119 1 12 C-1.8125 13 -1.8125 13 -5 13 C-7.9375 10.9375 -7.9375 10.9375 -10 8 C-10 4.8125 -10 4.8125 -9 2 C-5.53076119 -0.31282587 -4.07794425 -0.42478586 0 0 Z M-6.75 2.1875 C-8.4200394 4.60905713 -8.36962413 6.11693182 -8 9 C-6.17796419 11.22966747 -6.17796419 11.22966747 -3.5625 11.3125 C-0.99629985 11.18542656 -0.99629985 11.18542656 0.875 9.8125 C2.25177597 7.99075745 2.25177597 7.99075745 1.8125 5.4375 C1.15372967 2.85558728 1.15372967 2.85558728 -1 1 C-4.80082707 0.62566572 -4.80082707 0.62566572 -6.75 2.1875 Z " fill="#1E1E1E" transform="translate(204,237)"/>
</svg>
